<svg width="90" height="87" viewBox="0 0 90 87" fill="none" xmlns="http://www.w3.org/2000/svg">
<path fill-rule="evenodd" clip-rule="evenodd" d="M77.347 12.653C69.2454 4.55141 58.2574 -5.00817e-07 46.8 0L46.8 43.2C46.8 35.5618 43.7657 28.2364 38.3647 22.8353C32.9636 17.4343 25.6382 14.4 18 14.4L18 43.1917C17.9978 38.4208 16.1016 33.8458 12.7279 30.4721C9.35227 27.0964 4.77389 25.2 0 25.2V43.2L2.71792e-06 61.2C4.7739 61.2 9.35227 59.3036 12.7279 55.9279C16.1016 52.5542 17.9978 47.9792 18 43.2083L18 72C25.6382 72 32.9636 68.9657 38.3647 63.5647C43.7657 58.1636 46.8 50.8382 46.8 43.2L46.8 86.4C58.2574 86.4 69.2455 81.8486 77.347 73.747C85.4486 65.6454 90 54.6573 90 43.2C90 31.7426 85.4486 20.7546 77.347 12.653Z" fill="#DDDEEC"/>
</svg>
