<svg width="90" height="88" viewBox="0 0 90 88" fill="none" xmlns="http://www.w3.org/2000/svg">
<path fill-rule="evenodd" clip-rule="evenodd" d="M45.7826 19.5652C44.4979 19.5652 43.2258 19.3122 42.039 18.8206C40.8521 18.3289 39.7737 17.6084 38.8653 16.7C37.9569 15.7916 37.2363 14.7131 36.7447 13.5263C36.253 12.3394 36 11.0673 36 9.78261C36 8.49794 36.253 7.22585 36.7447 6.03897C37.2363 4.85209 37.9569 3.77366 38.8653 2.86526C39.7737 1.95686 40.8521 1.23628 42.039 0.744656C43.2258 0.253034 44.4979 0 45.7826 0V9.78261V19.5652ZM45.7826 19.5652C47.0673 19.5652 48.3394 19.8183 49.5262 20.3099C50.7131 20.8015 51.7916 21.5221 52.7 22.4305C53.6084 23.3389 54.3289 24.4173 54.8206 25.6042C55.3122 26.7911 55.5652 28.0632 55.5652 29.3478C55.5652 30.6325 55.3122 31.9046 54.8206 33.0915C54.3289 34.2784 53.6084 35.3568 52.7 36.2652C51.7916 37.1736 50.7131 37.8942 49.5262 38.3858C48.3394 38.8774 47.0673 39.1304 45.7826 39.1304V29.3478V19.5652ZM81.5454 75.6531C79.8838 76.3414 78.1029 76.6956 76.3043 76.6956V63V54.7698C75.1309 62.9196 71.3546 70.5296 65.4638 76.4204C58.2722 83.612 48.5183 87.6522 38.3478 87.6522C28.1774 87.6522 18.4234 83.612 11.2318 76.4204C4.04021 69.2288 0 59.4748 0 49.3044L38.3478 49.3044L76.3043 49.3043L76.3146 49.3044H76.6957V49.3099C78.3608 49.3575 80.0044 49.7086 81.5454 50.3469C83.2071 51.0351 84.7169 52.044 85.9886 53.3157C87.2604 54.5875 88.2692 56.0973 88.9575 57.7589C89.6458 59.4205 90 61.2015 90 63C90 64.7985 89.6458 66.5795 88.9575 68.2411C88.2692 69.9027 87.2604 71.4125 85.9886 72.6843C84.7169 73.956 83.2071 74.9649 81.5454 75.6531ZM30.8114 39.4663C30.0993 39.7612 29.336 39.913 28.5652 39.913V34.0435V28.1739C29.336 28.1739 30.0993 28.3257 30.8114 28.6207C31.5235 28.9157 32.1706 29.348 32.7156 29.8931C33.2607 30.4381 33.693 31.0852 33.988 31.7973C34.283 32.5094 34.4348 33.2727 34.4348 34.0435C34.4348 34.8143 34.283 35.5775 33.988 36.2897C33.693 37.0018 33.2607 37.6488 32.7156 38.1939C32.1706 38.7389 31.5235 39.1713 30.8114 39.4663ZM28.5652 28.1739C27.7944 28.1739 27.0312 28.0221 26.319 27.7271C25.6069 27.4321 24.9598 26.9998 24.4148 26.4548C23.8698 25.9097 23.4374 25.2627 23.1424 24.5505C22.8475 23.8384 22.6957 23.0751 22.6957 22.3043C22.6957 21.5335 22.8475 20.7703 23.1424 20.0582C23.4374 19.346 23.8698 18.699 24.4148 18.1539C24.9598 17.6089 25.6069 17.1765 26.319 16.8816C27.0312 16.5866 27.7944 16.4348 28.5652 16.4348V22.3043V28.1739Z" fill="#A39ACB"/>
</svg>
