<svg width="32" height="32" viewBox="0 0 32 32" fill="none" xmlns="http://www.w3.org/2000/svg">
<g clip-path="url(#clip0_566_2548)">
<path d="M27.9997 18.6667L23.9997 14.6667H14.6663C14.3127 14.6667 13.9736 14.5262 13.7235 14.2761C13.4735 14.0261 13.333 13.687 13.333 13.3333V5.33333C13.333 4.97971 13.4735 4.64057 13.7235 4.39052C13.9736 4.14048 14.3127 4 14.6663 4H26.6663C27.02 4 27.3591 4.14048 27.6092 4.39052C27.8592 4.64057 27.9997 4.97971 27.9997 5.33333V18.6667Z" stroke="#03A6A0" stroke-width="2" stroke-linecap="round" stroke-linejoin="round"/>
<path d="M18.6667 19.9999V22.6666C18.6667 23.0202 18.5262 23.3593 18.2761 23.6094C18.0261 23.8594 17.687 23.9999 17.3333 23.9999H8L4 27.9999V14.6666C4 14.313 4.14048 13.9738 4.39052 13.7238C4.64057 13.4737 4.97971 13.3333 5.33333 13.3333H8" stroke="#03A6A0" stroke-width="2" stroke-linecap="round" stroke-linejoin="round"/>
</g>
<defs>
<clipPath id="clip0_566_2548">
<rect width="32" height="32" fill="white"/>
</clipPath>
</defs>
</svg>
