<svg width="22" height="19" viewBox="0 0 22 19" fill="none" xmlns="http://www.w3.org/2000/svg">
<path d="M21 2.00904C20 2.49904 19.02 2.69804 18 2.99904C16.879 1.73404 15.217 1.66404 13.62 2.26204C12.023 2.86004 10.977 4.32204 11 5.99904V6.99904C7.755 7.08204 4.865 5.60404 3 2.99904C3 2.99904 -1.182 10.432 7 13.999C5.128 15.246 3.261 16.087 1 15.999C4.308 17.802 7.913 18.422 11.034 17.516C14.614 16.476 17.556 13.793 18.685 9.77404C19.0218 8.55171 19.189 7.2889 19.182 6.02104C19.18 5.77204 20.692 3.24904 21 2.00804V2.00904Z" stroke="#027471" stroke-width="2" stroke-linecap="round" stroke-linejoin="round"/>
</svg>
