<svg width="90" height="90" viewBox="0 0 90 90" fill="none" xmlns="http://www.w3.org/2000/svg">
<path fill-rule="evenodd" clip-rule="evenodd" d="M72.4286 0C72.4286 7.38817 69.4936 14.4737 64.2694 19.698C59.0452 24.9222 51.9596 27.8571 44.5714 27.8571C37.1833 27.8571 30.0977 24.9222 24.8735 19.698C19.6492 14.4738 16.7143 7.38818 16.7143 3.8147e-06L44.5714 0H72.4286ZM72.4286 90C72.4286 82.6118 69.4936 75.5262 64.2694 70.302C59.0452 65.0778 51.9596 62.1429 44.5714 62.1429C37.1833 62.1429 30.0977 65.0778 24.8735 70.302C19.6492 75.5262 16.7143 82.6118 16.7143 90L44.5714 90H72.4286ZM19.698 24.8735C14.4737 19.6492 7.38817 16.7143 -2.43535e-06 16.7143L0 44.5714L3.8147e-06 72.4286C7.38818 72.4286 14.4738 69.4936 19.698 64.2694C24.9222 59.0452 27.8571 51.9596 27.8571 44.5714C27.8571 37.1833 24.9222 30.0977 19.698 24.8735ZM89.1429 16.7143C81.7547 16.7143 74.6691 19.6492 69.4449 24.8735C64.2207 30.0977 61.2857 37.1833 61.2857 44.5714C61.2857 51.9596 64.2207 59.0452 69.4449 64.2694C74.6691 69.4936 81.7547 72.4286 89.1429 72.4286L89.1429 44.5714V16.7143ZM45 57C51.6274 57 57 51.6274 57 45C57 38.3726 51.6274 33 45 33C38.3726 33 33 38.3726 33 45C33 51.6274 38.3726 57 45 57Z" fill="#3E67B0"/>
</svg>
