<svg width="90" height="78" viewBox="0 0 90 78" fill="none" xmlns="http://www.w3.org/2000/svg">
<path fill-rule="evenodd" clip-rule="evenodd" d="M31.2763 12.9551C32.9776 8.8478 33.8532 4.44567 33.8532 0H0V33.8532C4.44567 33.8532 8.8478 32.9776 12.9551 31.2763C17.0623 29.575 20.7943 27.0814 23.9378 23.9378C27.0814 20.7943 29.575 17.0623 31.2763 12.9551ZM31.2763 64.6597C32.9776 68.767 33.8532 73.1691 33.8532 77.6148H0V43.7616C4.44567 43.7616 8.8478 44.6372 12.9551 46.3385C17.0623 48.0398 20.7943 50.5334 23.9378 53.6769C27.0814 56.8205 29.575 60.5524 31.2763 64.6597ZM56.1466 0C56.1466 4.44567 57.0222 8.8478 58.7235 12.9551C60.4248 17.0623 62.9184 20.7943 66.0619 23.9378C69.2055 27.0814 72.9374 29.575 77.0447 31.2763C81.152 32.9776 85.5541 33.8532 89.9998 33.8532V0H56.1466ZM58.7235 64.6597C57.0222 68.767 56.1466 73.1691 56.1466 77.6148H89.9998V43.7616C85.5541 43.7616 81.152 44.6372 77.0447 46.3385C72.9374 48.0398 69.2055 50.5334 66.0619 53.6769C62.9184 56.8205 60.4248 60.5524 58.7235 64.6597Z" fill="#F69570"/>
</svg>
