<svg width="73" height="93" viewBox="0 0 73 93" fill="none" xmlns="http://www.w3.org/2000/svg">
<path d="M54.173 69.2035C52.0404 66.85 49.4474 64.9591 46.5546 63.648C43.6618 62.3369 40.5307 61.6335 37.355 61.5813C34.1794 61.529 31.0268 62.1291 28.0924 63.3443C25.158 64.5595 22.5043 66.3641 20.2954 68.6462L36.9732 84.7887L54.173 69.2035Z" fill="#03A6A0"/>
<path d="M57.5611 43.4427C54.9498 40.5608 51.7747 38.2455 48.2325 36.6401C44.6902 35.0346 40.8562 34.1733 36.9677 34.1093C33.0791 34.0453 29.2188 34.7801 25.6257 36.2681C22.0326 37.7562 18.7831 39.9658 16.0783 42.7603L36.5002 62.5265L57.5611 43.4427Z" fill="#03A6A0"/>
<path d="M63.1772 11.8272C59.8695 8.17674 55.8478 5.244 51.3609 3.21047C46.8741 1.17695 42.0177 0.0859025 37.0922 0.00487077C32.1667 -0.0761609 27.277 0.854543 22.7257 2.73938C18.1744 4.62422 14.0584 7.42308 10.6323 10.9627L36.5 36L63.1772 11.8272Z" fill="#03A6A0"/>
</svg>
