<svg width="250" height="250" viewBox="0 0 250 250" fill="none" xmlns="http://www.w3.org/2000/svg">
<path d="M250 191.2H0V191.325H250V191.2Z" fill="#EBEBEB"/>
<path d="M224.95 197.085H208.39V197.21H224.95V197.085Z" fill="#EBEBEB"/>
<path d="M192.39 193.345H119.12V193.47H192.39V193.345Z" fill="#EBEBEB"/>
<path d="M33.8355 193.285H26.2305V193.41H33.8355V193.285Z" fill="#EBEBEB"/>
<path d="M55.4452 193.285H38.2852V193.41H55.4452V193.285Z" fill="#EBEBEB"/>
<path d="M87.8353 195.395H65.7354V195.52H87.8353V195.395Z" fill="#EBEBEB"/>
<path d="M119.225 168.9H22.6753C21.9181 168.9 21.1919 168.599 20.6565 168.064C20.1211 167.528 19.8203 166.802 19.8203 166.045V30.33C19.8282 29.5776 20.1323 28.8585 20.6667 28.3288C21.2012 27.7991 21.9228 27.5013 22.6753 27.5H119.225C119.982 27.5013 120.707 27.8027 121.241 28.338C121.775 28.8732 122.075 29.5987 122.075 30.355V166.045C122.075 166.801 121.775 167.527 121.241 168.062C120.707 168.597 119.982 168.899 119.225 168.9ZM22.6753 27.6C21.9521 27.6026 21.2592 27.8911 20.7478 28.4025C20.2364 28.9139 19.9479 29.6068 19.9453 30.33V166.045C19.9479 166.768 20.2364 167.461 20.7478 167.972C21.2592 168.484 21.9521 168.772 22.6753 168.775H119.225C119.948 168.774 120.642 168.485 121.152 167.974C121.663 167.462 121.95 166.768 121.95 166.045V30.33C121.95 29.6068 121.663 28.9132 121.152 28.4014C120.642 27.8895 119.948 27.6013 119.225 27.6H22.6753Z" fill="#EBEBEB"/>
<path d="M226.655 168.9H130.105C129.349 168.897 128.624 168.596 128.089 168.061C127.554 167.526 127.253 166.801 127.25 166.045V30.33C127.258 29.5776 127.562 28.8585 128.096 28.3288C128.631 27.7991 129.353 27.5013 130.105 27.5H226.655C227.406 27.5026 228.126 27.8011 228.659 28.3309C229.191 28.8606 229.493 29.5789 229.5 30.33V166.045C229.501 166.419 229.428 166.79 229.285 167.136C229.142 167.482 228.933 167.797 228.669 168.062C228.405 168.327 228.091 168.537 227.745 168.681C227.4 168.825 227.029 168.899 226.655 168.9ZM130.105 27.6C129.382 27.6026 128.689 27.8911 128.178 28.4025C127.666 28.9139 127.378 29.6068 127.375 30.33V166.045C127.378 166.768 127.666 167.461 128.178 167.972C128.689 168.484 129.382 168.772 130.105 168.775H226.655C227.378 168.772 228.071 168.484 228.582 167.972C229.094 167.461 229.382 166.768 229.385 166.045V30.33C229.382 29.6068 229.094 28.9139 228.582 28.4025C228.071 27.8911 227.378 27.6026 226.655 27.6H130.105Z" fill="#EBEBEB"/>
<path d="M124.795 99.6401H89.8398V191.2H124.795V99.6401Z" fill="#F0F0F0"/>
<path d="M121.295 99.6401H80.2451V191.2H121.295V99.6401Z" fill="#FAFAFA"/>
<path d="M87.2003 102.52H82.3604V107.36H87.2003V102.52Z" fill="#EBEBEB"/>
<path d="M95.0949 102.52H90.2549V107.36H95.0949V102.52Z" fill="#EBEBEB"/>
<path d="M102.99 102.52H98.1504V107.36H102.99V102.52Z" fill="#EBEBEB"/>
<path d="M110.88 102.52H106.04V107.36H110.88V102.52Z" fill="#EBEBEB"/>
<path d="M118.775 102.52H113.935V107.36H118.775V102.52Z" fill="#EBEBEB"/>
<path d="M87.2003 109.04H82.3604V113.88H87.2003V109.04Z" fill="#EBEBEB"/>
<path d="M95.0949 109.04H90.2549V113.88H95.0949V109.04Z" fill="#EBEBEB"/>
<path d="M102.99 109.04H98.1504V113.88H102.99V109.04Z" fill="#EBEBEB"/>
<path d="M110.88 109.04H106.04V113.88H110.88V109.04Z" fill="#EBEBEB"/>
<path d="M118.775 109.04H113.935V113.88H118.775V109.04Z" fill="#EBEBEB"/>
<path d="M87.2003 115.555H82.3604V120.395H87.2003V115.555Z" fill="#EBEBEB"/>
<path d="M95.0949 115.555H90.2549V120.395H95.0949V115.555Z" fill="#EBEBEB"/>
<path d="M102.99 115.555H98.1504V120.395H102.99V115.555Z" fill="#EBEBEB"/>
<path d="M110.88 115.555H106.04V120.395H110.88V115.555Z" fill="#EBEBEB"/>
<path d="M118.775 115.555H113.935V120.395H118.775V115.555Z" fill="#EBEBEB"/>
<path d="M87.2003 122.07H82.3604V126.91H87.2003V122.07Z" fill="#EBEBEB"/>
<path d="M95.0949 122.07H90.2549V126.91H95.0949V122.07Z" fill="#EBEBEB"/>
<path d="M102.99 122.07H98.1504V126.91H102.99V122.07Z" fill="#EBEBEB"/>
<path d="M110.88 122.07H106.04V126.91H110.88V122.07Z" fill="#EBEBEB"/>
<path d="M118.775 122.07H113.935V126.91H118.775V122.07Z" fill="#EBEBEB"/>
<path d="M87.2003 128.585H82.3604V133.425H87.2003V128.585Z" fill="#EBEBEB"/>
<path d="M95.0949 128.585H90.2549V133.425H95.0949V128.585Z" fill="#EBEBEB"/>
<path d="M102.99 128.585H98.1504V133.425H102.99V128.585Z" fill="#EBEBEB"/>
<path d="M110.88 128.585H106.04V133.425H110.88V128.585Z" fill="#EBEBEB"/>
<path d="M118.775 128.585H113.935V133.425H118.775V128.585Z" fill="#EBEBEB"/>
<path d="M169.755 88.25H134.28V191.2H169.755V88.25Z" fill="#E6E6E6"/>
<path d="M159.46 88.25H124.69V191.2H159.46V88.25Z" fill="#F5F5F5"/>
<path d="M157 91.835H127.475V95.66H157V91.835Z" fill="#E0E0E0"/>
<path d="M157 97.7251H127.475V101.55H157V97.7251Z" fill="#E0E0E0"/>
<path d="M157 103.615H127.475V107.44H157V103.615Z" fill="#E0E0E0"/>
<path d="M157 109.505H127.475V113.33H157V109.505Z" fill="#E0E0E0"/>
<path d="M157 115.4H127.475V119.225H157V115.4Z" fill="#E0E0E0"/>
<path d="M80.2504 136.56H44.7754V191.2H80.2504V136.56Z" fill="#E6E6E6"/>
<path d="M69.9497 136.56H35.1797V191.2H69.9497V136.56Z" fill="#F0F0F0"/>
<path d="M67.3297 139.725H37.8047V143.55H67.3297V139.725Z" fill="#E0E0E0"/>
<path d="M67.3297 145.615H37.8047V149.44H67.3297V145.615Z" fill="#E0E0E0"/>
<path d="M67.3297 151.505H37.8047V155.33H67.3297V151.505Z" fill="#E0E0E0"/>
<path d="M67.3297 157.395H37.8047V161.22H67.3297V157.395Z" fill="#E0E0E0"/>
<path d="M67.3297 163.29H37.8047V167.115H67.3297V163.29Z" fill="#E0E0E0"/>
<path d="M214.82 136.56H179.345V191.2H214.82V136.56Z" fill="#E6E6E6"/>
<path d="M204.525 136.56H169.755V191.2H204.525V136.56Z" fill="#F0F0F0"/>
<path d="M177.72 139.725H172.88V144.565H177.72V139.725Z" fill="#FAFAFA"/>
<path d="M185.615 139.725H180.775V144.565H185.615V139.725Z" fill="#FAFAFA"/>
<path d="M193.505 139.725H188.665V144.565H193.505V139.725Z" fill="#FAFAFA"/>
<path d="M201.4 139.725H196.56V144.565H201.4V139.725Z" fill="#FAFAFA"/>
<path d="M177.72 146.99H172.88V151.83H177.72V146.99Z" fill="#FAFAFA"/>
<path d="M185.615 146.99H180.775V151.83H185.615V146.99Z" fill="#FAFAFA"/>
<path d="M193.505 146.99H188.665V151.83H193.505V146.99Z" fill="#FAFAFA"/>
<path d="M201.4 146.99H196.56V151.83H201.4V146.99Z" fill="#FAFAFA"/>
<path d="M177.72 154.255H172.88V159.095H177.72V154.255Z" fill="#FAFAFA"/>
<path d="M185.615 154.255H180.775V159.095H185.615V154.255Z" fill="#FAFAFA"/>
<path d="M193.505 154.255H188.665V159.095H193.505V154.255Z" fill="#FAFAFA"/>
<path d="M201.4 154.255H196.56V159.095H201.4V154.255Z" fill="#FAFAFA"/>
<path d="M177.72 161.52H172.88V166.36H177.72V161.52Z" fill="#FAFAFA"/>
<path d="M185.615 161.52H180.775V166.36H185.615V161.52Z" fill="#FAFAFA"/>
<path d="M193.505 161.52H188.665V166.36H193.505V161.52Z" fill="#FAFAFA"/>
<path d="M201.4 161.52H196.56V166.36H201.4V161.52Z" fill="#FAFAFA"/>
<path d="M26.2305 92.9249H72.7305C72.7305 92.9249 75.7305 86.9749 70.6055 86.9749C70.6055 86.9749 69.6755 80.4199 65.0755 79.5349C60.4755 78.6499 57.8405 84.1999 57.8405 84.1999C57.8405 84.1999 55.7255 72.1249 49.9155 73.3749C44.1055 74.6249 44.1005 80.1749 44.1005 80.1749C44.1005 80.1749 40.7805 74.4999 36.2005 76.7049C31.6205 78.9099 33.0005 88.0849 33.0005 88.0849C33.0005 88.0849 26.3905 85.5499 26.2305 92.9249Z" fill="#F5F5F5"/>
<path d="M168.585 45.245H205.335C205.335 45.245 202.155 40.41 196.49 41.79C196.49 41.79 197.875 35.435 191.52 36.82C191.52 36.82 188.48 30.05 183.92 31.82C179.36 33.59 180.05 40.11 180.05 40.11C180.05 40.11 169.55 37.095 168.585 45.245Z" fill="#F5F5F5"/>
<path d="M227.285 106.19H174.16C174.16 106.19 178.75 99.1899 186.94 101.19C186.94 101.19 184.94 91.9999 194.13 93.9999C194.13 93.9999 198.525 84.2099 205.13 86.8099C211.735 89.4099 210.72 98.8099 210.72 98.8099C210.72 98.8099 225.885 94.4049 227.285 106.19Z" fill="#F5F5F5"/>
<path d="M125 213.78C178.541 213.78 221.945 211.246 221.945 208.12C221.945 204.994 178.541 202.46 125 202.46C71.4584 202.46 28.0547 204.994 28.0547 208.12C28.0547 211.246 71.4584 213.78 125 213.78Z" fill="#F5F5F5"/>
<path d="M185 71.825C184.45 73.53 182.34 74.165 182.34 74.165L85.4002 79.325C78.5302 79.455 73.6352 78.61 70.1552 77.325C68.1816 76.6614 66.35 75.6336 64.7552 74.295C61.5802 71.53 61.5352 68.655 61.5352 68.655L74.9202 68L78.4552 67.82L82.5302 67.61C112.665 66.075 164.995 63.425 168.78 63.415C170.8 63.4932 172.799 63.843 174.725 64.455C176.482 64.9717 178.199 65.6185 179.86 66.39C181.86 67.335 183.57 68.39 184.445 69.355C184.755 69.6567 184.973 70.0397 185.075 70.46C185.161 70.9144 185.135 71.3828 185 71.825Z" fill="#027471"/>
<path d="M82.5302 67.6051L78.4552 67.8151L74.9202 67.9951L61.5352 68.6801L59.7852 54.1801L65.6452 53.9351C65.6452 53.9351 66.6902 55.8101 70.6852 61.3701C74.6802 66.9301 82.5302 67.6051 82.5302 67.6051Z" fill="#027471"/>
<path d="M185 71.8252C184.45 73.5302 182.34 74.1652 182.34 74.1652L85.4003 79.3252C78.5303 79.4552 73.6353 78.6102 70.1553 77.3252L185 71.8252Z" fill="#263238"/>
<path opacity="0.1" d="M184.446 69.3502L64.7555 74.3202C61.5805 71.5552 61.5405 68.6802 61.5405 68.6802V68.5252L61.4305 67.6052L59.8105 54.1952L65.6655 53.9502C65.6655 53.9502 66.7155 55.8252 70.7105 61.3852C74.7055 66.9452 82.5555 67.6052 82.5555 67.6052C112.686 66.0702 165.016 63.4202 168.801 63.4102C170.82 63.4883 172.82 63.8381 174.746 64.4502C174.961 64.5102 175.171 64.5752 175.386 64.6452C176.922 65.1265 178.425 65.7078 179.886 66.3852C180.151 66.5102 180.386 66.6352 180.661 66.7652C182.061 67.4042 183.341 68.2785 184.446 69.3502Z" fill="black"/>
<path d="M87.8907 69.4948L87.6809 69.5037C87.2698 69.5211 86.9506 69.8684 86.968 70.2795L87.0053 71.1637C87.0227 71.5748 87.3701 71.894 87.7811 71.8766L87.991 71.8677C88.402 71.8503 88.7212 71.503 88.7038 71.0919L88.6665 70.2077C88.6491 69.7966 88.3018 69.4775 87.8907 69.4948Z" fill="white"/>
<path d="M91.3268 69.3463L91.1178 69.3659C90.7081 69.4041 90.407 69.7672 90.4452 70.1768L90.5274 71.058C90.5656 71.4677 90.9287 71.7688 91.3384 71.7306L91.5475 71.7111C91.9571 71.6729 92.2583 71.3098 92.22 70.9001L92.1378 70.0189C92.0996 69.6092 91.7365 69.3081 91.3268 69.3463Z" fill="white"/>
<path d="M94.9532 69.1997L94.7434 69.2086C94.3323 69.2261 94.0132 69.5735 94.0306 69.9846L94.0681 70.8688C94.0856 71.2798 94.433 71.599 94.8441 71.5815L95.0539 71.5726C95.4649 71.5552 95.784 71.2078 95.7666 70.7967L95.7291 69.9125C95.7116 69.5014 95.3642 69.1823 94.9532 69.1997Z" fill="white"/>
<path d="M98.4981 69.0422L98.2883 69.0511C97.8772 69.0684 97.558 69.4158 97.5754 69.8269L97.6128 70.7111C97.6301 71.1222 97.9775 71.4413 98.3886 71.4239L98.5984 71.4151C99.0095 71.3977 99.3286 71.0504 99.3113 70.6393L99.2739 69.7551C99.2565 69.344 98.9092 69.0248 98.4981 69.0422Z" fill="white"/>
<path d="M102.263 68.8835L102.053 68.8924C101.642 68.9097 101.323 69.2571 101.34 69.6682L101.377 70.5524C101.395 70.9635 101.742 71.2826 102.153 71.2653L102.363 71.2564C102.774 71.239 103.093 70.8917 103.076 70.4806L103.039 69.5964C103.021 69.1853 102.674 68.8661 102.263 68.8835Z" fill="white"/>
<path d="M105.942 68.7282L105.733 68.7371C105.322 68.7545 105.002 69.1018 105.02 69.5129L105.057 70.3971C105.074 70.8082 105.422 71.1274 105.833 71.11L106.043 71.1011C106.454 71.0837 106.773 70.7364 106.756 70.3253L106.718 69.4411C106.701 69.03 106.354 68.7109 105.942 68.7282Z" fill="white"/>
<path d="M139.603 67.3083L139.393 67.3172C138.982 67.3345 138.663 67.6819 138.68 68.093L138.717 68.9772C138.735 69.3883 139.082 69.7074 139.493 69.6901L139.703 69.6812C140.114 69.6638 140.433 69.3165 140.416 68.9054L140.378 68.0212C140.361 67.6101 140.014 67.2909 139.603 67.3083Z" fill="white"/>
<path d="M143.331 67.5341L143.121 67.5425C142.71 67.5589 142.389 67.9058 142.406 68.3173L142.441 69.2023C142.458 69.6137 142.805 69.9339 143.216 69.9175L143.426 69.9091C143.837 69.8926 144.158 69.5457 144.141 69.1343L144.106 68.2493C144.089 67.8378 143.742 67.5176 143.331 67.5341Z" fill="white"/>
<path d="M146.689 67.0095L146.479 67.0183C146.068 67.0357 145.748 67.3831 145.766 67.7941L145.803 68.6783C145.821 69.0894 146.168 69.4086 146.579 69.3912L146.789 69.3824C147.2 69.365 147.519 69.0177 147.502 68.6066L147.464 67.7224C147.447 67.3113 147.1 66.9921 146.689 67.0095Z" fill="white"/>
<path d="M150.18 66.862L149.97 66.8709C149.559 66.8883 149.24 67.2356 149.257 67.6467L149.294 68.5309C149.312 68.942 149.659 69.2611 150.07 69.2438L150.28 69.2349C150.691 69.2175 151.01 68.8702 150.993 68.4591L150.956 67.5749C150.938 67.1638 150.591 66.8446 150.18 66.862Z" fill="white"/>
<path d="M153.466 66.7233L153.256 66.7322C152.845 66.7496 152.526 67.0969 152.543 67.508L152.581 68.3922C152.598 68.8033 152.945 69.1225 153.356 69.1051L153.566 69.0962C153.977 69.0789 154.296 68.7315 154.279 68.3204L154.242 67.4362C154.224 67.0251 153.877 66.706 153.466 66.7233Z" fill="white"/>
<path d="M137.54 68.8301L101.61 57.0751C100.285 56.6423 98.8934 56.4476 97.5002 56.5001L89.4502 56.7751L110.45 70.1351L137.54 68.8301Z" fill="#263238"/>
<path d="M122.035 77.3753L114.57 84.3753L117.465 84.5103C118.862 84.5732 120.258 84.3817 121.585 83.9453L145.265 76.1353L122.035 77.3753Z" fill="#263238"/>
<path d="M93.5353 76.9399L92.2653 75.5549L80.3153 72.7999C78.7869 72.448 77.216 72.3167 75.6503 72.4099L70.4453 72.7199L80.5303 77.5649L93.5353 76.9399Z" fill="#263238"/>
<path d="M82.5347 67.6052L61.5347 68.5252L61.4247 67.6052L60.7247 61.8002L60.3997 59.1202L59.8047 54.1952L65.6597 53.9502C65.6597 53.9502 66.3697 55.2152 68.8347 58.7502C69.3347 59.4852 69.9347 60.3152 70.6147 61.2502L70.7047 61.3752C74.6847 66.9452 82.5347 67.6052 82.5347 67.6052Z" fill="#263238"/>
<path d="M70.5998 61.26L60.7098 61.8L60.3848 59.12L68.8198 58.75C69.3298 59.5 69.9198 60.315 70.5998 61.26Z" fill="white"/>
<path d="M180.635 66.765C175.535 67.12 161.1 67.8 158.97 67.645C156.34 67.45 156.685 65.48 156.685 65.48L175.365 64.645C176.901 65.1263 178.404 65.7076 179.865 66.385C180.125 66.5 180.385 66.635 180.635 66.765Z" fill="white"/>
<path d="M74.5 105.555C74.94 104.625 103.655 76.1401 103.655 76.1401L107.055 109.895" stroke="#263238" stroke-width="0.5" stroke-linecap="round" stroke-linejoin="round"/>
<path d="M79.9854 106.045L103.665 76.1401L111.385 110.635" stroke="#263238" stroke-width="0.5" stroke-linecap="round" stroke-linejoin="round"/>
<path d="M111.527 110.535L78.9355 105.896L75.6018 129.32L108.193 133.959L111.527 110.535Z" fill="#027471"/>
<path opacity="0.3" d="M111.527 110.535L78.9355 105.896L75.6018 129.32L108.193 133.959L111.527 110.535Z" fill="black"/>
<path d="M107.06 109.902L74.4688 105.264L71.135 128.688L103.727 133.326L107.06 109.902Z" fill="#027471"/>
<path opacity="0.5" d="M89.3499 128.443C94.2627 128.284 98.1166 124.173 97.9579 119.26C97.7992 114.347 93.688 110.493 88.7752 110.652C83.8625 110.811 80.0085 114.922 80.1672 119.835C80.3259 124.748 84.4371 128.602 89.3499 128.443Z" fill="white"/>
<path opacity="0.5" d="M108.669 112.523L102.738 111.679L102.456 113.664L108.386 114.508L108.669 112.523Z" fill="white"/>
<path opacity="0.5" d="M106.403 128.445L100.473 127.601L100.19 129.586L106.12 130.43L106.403 128.445Z" fill="white"/>
<path d="M83.6401 115.27L85.4201 116.365C85.5195 116.436 85.5896 116.541 85.6172 116.659C85.6448 116.778 85.6281 116.903 85.5701 117.01L84.7751 118.295C84.7102 118.399 84.6072 118.472 84.4883 118.5C84.3695 118.528 84.2445 118.509 84.1401 118.445L82.3551 117.35C82.3462 117.74 82.4325 118.126 82.6066 118.475C82.7806 118.823 83.0372 119.125 83.354 119.352C83.6708 119.579 84.0382 119.725 84.4244 119.778C84.8106 119.831 85.2039 119.789 85.5701 119.655C85.8372 119.561 86.123 119.533 86.4033 119.573C86.6836 119.613 86.95 119.72 87.1801 119.885L93.5001 124.28C93.7803 124.483 94.1295 124.568 94.4714 124.514C94.8133 124.461 95.1203 124.274 95.3251 123.995C95.4215 123.856 95.4895 123.7 95.5254 123.535C95.5612 123.37 95.5641 123.199 95.5339 123.033C95.5037 122.867 95.441 122.708 95.3494 122.566C95.2578 122.424 95.1391 122.301 95.0001 122.205L94.8801 122.13L88.0701 118.455C87.8212 118.321 87.6082 118.128 87.4489 117.894C87.2897 117.66 87.189 117.391 87.1551 117.11C87.1197 116.797 87.0229 116.494 86.8702 116.219C86.7176 115.943 86.512 115.7 86.2654 115.504C86.0188 115.308 85.7359 115.163 85.433 115.076C85.1301 114.99 84.8131 114.964 84.5001 115C84.2096 115.034 83.928 115.122 83.6701 115.26L83.6401 115.27ZM94.9501 123.685C94.8794 123.793 94.7696 123.87 94.6438 123.899C94.518 123.927 94.3859 123.907 94.2751 123.84C94.1996 123.761 94.1524 123.659 94.1406 123.55C94.1289 123.44 94.1533 123.331 94.2101 123.237C94.267 123.143 94.3531 123.071 94.4552 123.031C94.5573 122.99 94.6697 122.985 94.7751 123.015C94.8826 123.085 94.9591 123.194 94.9889 123.318C95.0187 123.443 94.9994 123.574 94.9351 123.685H94.9501Z" fill="white"/>
<path d="M148.96 141.945L150.125 74.3198L119.865 138.96" stroke="#263238" stroke-width="0.5" stroke-linecap="round" stroke-linejoin="round"/>
<path d="M152.751 142.765L150.126 74.3198L125.016 139.825" stroke="#263238" stroke-width="0.5" stroke-linecap="round" stroke-linejoin="round"/>
<path d="M152.963 142.444L123.639 138.921L121.107 159.994L150.431 163.517L152.963 142.444Z" fill="#027471"/>
<path opacity="0.3" d="M152.963 142.444L123.639 138.921L121.107 159.994L150.431 163.517L152.963 142.444Z" fill="black"/>
<path d="M148.949 141.958L119.625 138.436L117.093 159.509L146.418 163.032L148.949 141.958Z" fill="#027471"/>
<path opacity="0.5" d="M139.844 155.085C142.124 151.31 140.912 146.401 137.137 144.121C133.362 141.842 128.454 143.053 126.174 146.828C123.894 150.603 125.106 155.512 128.881 157.792C132.656 160.072 137.564 158.86 139.844 155.085Z" fill="white"/>
<path opacity="0.8" d="M128.165 149.06C128.41 148.77 128.845 148.825 129.2 149.14L131.35 151.23L130.385 152.34C130.385 152.34 128.945 150.385 128.645 149.995C128.345 149.605 128 149.255 128.165 149.06Z" fill="white"/>
<path d="M130.535 149.245C130.585 148.835 131.005 148.71 131.49 148.82C131.975 148.93 133.865 149.785 133.865 149.785C133.865 149.785 136.015 149.415 137.13 149.865C137.505 150.01 137.52 150.365 137.395 150.68C137.351 150.822 137.258 150.944 137.133 151.024C137.007 151.105 136.858 151.139 136.71 151.12L133.59 151.145C133.534 151.153 133.477 151.153 133.42 151.145C132.659 150.616 131.862 150.14 131.035 149.72C130.585 149.5 130.5 149.43 130.535 149.245Z" fill="white"/>
<path d="M137.38 150C137.05 149.745 136.33 149.715 135.585 149.89C134.802 150.075 134.07 150.43 133.44 150.93H133.37L131.025 151.11L128.57 149.14C128.17 148.84 127.725 148.81 127.52 149.105C127.38 149.305 127.775 149.645 128.13 150.015C128.485 150.385 129.715 151.705 130.105 152.13C130.18 152.212 130.27 152.278 130.37 152.325L130.935 152.6C131.227 152.72 131.54 152.776 131.855 152.765L136.405 152.265L139.07 154.62L139.435 151.62L137.38 150Z" fill="white"/>
<path opacity="0.5" d="M150.434 144.276L145.098 143.635L144.884 145.417L150.22 146.059L150.434 144.276Z" fill="white"/>
<path opacity="0.5" d="M148.713 158.603L143.376 157.962L143.162 159.745L148.499 160.386L148.713 158.603Z" fill="white"/>
<path d="M151.755 37.3898C151.689 37.1588 151.559 36.9509 151.38 36.7898L151.17 36.5948C150.439 36.0324 149.631 35.5778 148.77 35.2448L148.435 35.1098C147.601 34.7788 146.746 34.5032 145.875 34.2848C144.866 34.0099 143.827 33.8588 142.78 33.8348H142.555C141.51 33.8748 133.84 34.5448 124.34 35.3948C121.705 35.6248 118.93 35.8948 116.115 36.1298L109.775 34.3298C109.036 34.1213 108.266 34.0434 107.5 34.0998L103.04 34.4298L107.335 36.9298L94.8355 38.0648C93.4053 37.955 92.009 37.5749 90.7205 36.9448C89.7128 36.4556 88.8264 35.7485 88.1255 34.8748C87.2655 33.7698 86.6255 32.9348 86.1855 32.3198L86.1505 32.2748L85.9905 32.0498L85.8305 31.8348L85.8005 31.7898L85.6855 31.6298L85.6605 31.5948L85.5555 31.4448L85.2555 31.0098L85.2205 30.9548V30.9248L83.3255 31.0798L81.9805 31.1898L83.2355 38.9798V39.1048V39.1698C83.2537 39.3744 83.2973 39.576 83.3655 39.7698C83.6978 40.7488 84.3161 41.6057 85.1405 42.2298C86.0571 42.9346 87.0963 43.4635 88.2055 43.7898C90.1655 44.4148 92.9005 44.7898 96.7055 44.5498L116.995 42.6648L112.995 46.7148H114.605C115.382 46.7205 116.153 46.5833 116.88 46.3098L129.85 41.4548L150.315 39.4998C150.315 39.4998 151.47 39.1048 151.74 38.1448C151.805 37.8979 151.811 37.6391 151.755 37.3898Z" fill="#027471"/>
<path opacity="0.5" d="M151.755 37.3898C151.689 37.1588 151.559 36.9509 151.38 36.7898L151.17 36.5948C150.439 36.0324 149.631 35.5778 148.77 35.2448L148.435 35.1098C147.601 34.7788 146.746 34.5032 145.875 34.2848C144.866 34.0099 143.827 33.8588 142.78 33.8348H142.555C141.51 33.8748 133.84 34.5448 124.34 35.3948C121.705 35.6248 118.93 35.8948 116.115 36.1298L109.775 34.3298C109.036 34.1213 108.266 34.0434 107.5 34.0998L103.04 34.4298L107.335 36.9298L94.8355 38.0648C93.4053 37.955 92.009 37.5749 90.7205 36.9448C89.7128 36.4556 88.8264 35.7485 88.1255 34.8748C87.2655 33.7698 86.6255 32.9348 86.1855 32.3198L86.1505 32.2748L85.9905 32.0498L85.8305 31.8348L85.8005 31.7898L85.6855 31.6298L85.6605 31.5948L85.5555 31.4448L85.2555 31.0098L85.2205 30.9548V30.9248L83.3255 31.0798L81.9805 31.1898L83.2355 38.9798V39.1048V39.1698C83.2537 39.3744 83.2973 39.576 83.3655 39.7698C83.6978 40.7488 84.3161 41.6057 85.1405 42.2298C86.0571 42.9346 87.0963 43.4635 88.2055 43.7898C90.1655 44.4148 92.9005 44.7898 96.7055 44.5498L116.995 42.6648L112.995 46.7148H114.605C115.382 46.7205 116.153 46.5833 116.88 46.3098L129.85 41.4548L150.315 39.4998C150.315 39.4998 151.47 39.1048 151.74 38.1448C151.805 37.8979 151.811 37.6391 151.755 37.3898Z" fill="black"/>
<path d="M191.345 118.505L189.075 118.235L183.285 117.535L182.675 122.635L189.765 123.485L190.735 123.6L191.345 118.505Z" fill="#027471"/>
<path opacity="0.7" d="M191.345 118.505L189.075 118.235L183.285 117.535L182.675 122.635L189.765 123.485L190.735 123.6L191.345 118.505Z" fill="black"/>
<path d="M168.7 110.88L168 115.785L174.83 116.76L175.77 116.895L176.465 111.985L171.325 111.25L168.7 110.88Z" fill="#027471"/>
<path opacity="0.7" d="M168.7 110.88L168 115.785L174.83 116.76L175.77 116.895L176.465 111.985L171.325 111.25L168.7 110.88Z" fill="black"/>
<path d="M207.395 96.1651C207.355 95.9758 207.262 95.8022 207.125 95.6651L206.97 95.5051C206.419 95.0498 205.806 94.6745 205.15 94.3901L204.895 94.2751C204.259 93.992 203.604 93.7515 202.935 93.5551C202.161 93.3119 201.36 93.1625 200.55 93.1101H200.375C199.565 93.1101 193.595 93.3951 186.205 93.7601L179.805 94.0801L174.94 92.5001C174.37 92.3108 173.771 92.2245 173.17 92.2451L169.705 92.3651L172.955 94.4351L163.21 94.9351C162.104 94.8065 161.033 94.467 160.055 93.9351C159.289 93.526 158.623 92.9522 158.105 92.2551C157.47 91.3701 157.01 90.7051 156.68 90.2151L156.655 90.1751L156.535 90.0001L156.425 89.8251L156.4 89.7901L156.315 89.6601V89.6351L156.235 89.5151C156.135 89.3551 156.06 89.2451 156.02 89.1701L155.995 89.1251V89.1001L154.495 89.1601L153.45 89.2051L154.185 95.2851V95.3801V95.4451C154.192 95.6045 154.219 95.7624 154.265 95.9151C154.497 96.6831 154.951 97.3652 155.57 97.8751C156.258 98.4508 157.046 98.8949 157.895 99.1851C159.395 99.7251 161.505 100.09 164.465 100.035L180.25 99.1951L177.035 102.195L178.28 102.255C178.883 102.282 179.487 102.199 180.06 102.01L190.265 98.6451L206.235 97.7951C206.486 97.7193 206.718 97.5909 206.915 97.4185C207.113 97.2461 207.271 97.0336 207.38 96.7951C207.441 96.5902 207.446 96.3727 207.395 96.1651Z" fill="#027471"/>
<path opacity="0.7" d="M207.395 96.1651C207.355 95.9758 207.262 95.8022 207.125 95.6651L206.97 95.5051C206.419 95.0498 205.806 94.6745 205.15 94.3901L204.895 94.2751C204.259 93.992 203.604 93.7515 202.935 93.5551C202.161 93.3119 201.36 93.1625 200.55 93.1101H200.375C199.565 93.1101 193.595 93.3951 186.205 93.7601L179.805 94.0801L174.94 92.5001C174.37 92.3108 173.771 92.2245 173.17 92.2451L169.705 92.3651L172.955 94.4351L163.21 94.9351C162.104 94.8065 161.033 94.467 160.055 93.9351C159.289 93.526 158.623 92.9522 158.105 92.2551C157.47 91.3701 157.01 90.7051 156.68 90.2151L156.655 90.1751L156.535 90.0001L156.425 89.8251L156.4 89.7901L156.315 89.6601V89.6351L156.235 89.5151C156.135 89.3551 156.06 89.2451 156.02 89.1701L155.995 89.1251V89.1001L154.495 89.1601L153.45 89.2051L154.185 95.2851V95.3801V95.4451C154.192 95.6045 154.219 95.7624 154.265 95.9151C154.497 96.6831 154.951 97.3652 155.57 97.8751C156.258 98.4508 157.046 98.8949 157.895 99.1851C159.395 99.7251 161.505 100.09 164.465 100.035L180.25 99.1951L177.035 102.195L178.28 102.255C178.883 102.282 179.487 102.199 180.06 102.01L190.265 98.6451L206.235 97.7951C206.486 97.7193 206.718 97.5909 206.915 97.4185C207.113 97.2461 207.271 97.0336 207.38 96.7951C207.441 96.5902 207.446 96.3727 207.395 96.1651Z" fill="black"/>
<path d="M176.071 112.79L175.931 99.0503L168.851 111.48" stroke="#263238" stroke-width="0.5" stroke-linecap="round" stroke-linejoin="round"/>
<path d="M191.185 118.835L190.965 98.0049L183.45 117.85" stroke="#263238" stroke-width="0.5" stroke-linecap="round" stroke-linejoin="round"/>
</svg>
