<svg width="250" height="250" viewBox="0 0 250 250" fill="none" xmlns="http://www.w3.org/2000/svg">
<path d="M224.95 199.245H208.39V199.37H224.95V199.245Z" fill="#EBEBEB"/>
<path d="M165.61 200.605H161.265V200.73H165.61V200.605Z" fill="#EBEBEB"/>
<path d="M207.89 194.605H198.295V194.73H207.89V194.605Z" fill="#EBEBEB"/>
<path d="M47.8255 195.445H26.2305V195.57H47.8255V195.445Z" fill="#EBEBEB"/>
<path d="M55.4453 195.445H52.2803V195.57H55.4453V195.445Z" fill="#EBEBEB"/>
<path d="M112.575 197.555H65.7354V197.68H112.575V197.555Z" fill="#EBEBEB"/>
<path d="M119.2 168.9H22.6499C21.8927 168.9 21.1665 168.599 20.6311 168.064C20.0957 167.528 19.7949 166.802 19.7949 166.045V30.33C19.8015 29.5771 20.1052 28.8574 20.6399 28.3274C21.1746 27.7973 21.897 27.5 22.6499 27.5H119.2C119.575 27.5 119.946 27.5738 120.292 27.7173C120.639 27.8608 120.954 28.0711 121.219 28.3362C121.484 28.6013 121.694 28.9161 121.838 29.2624C121.981 29.6088 122.055 29.9801 122.055 30.355V166.045C122.055 166.42 121.981 166.791 121.838 167.138C121.694 167.484 121.484 167.799 121.219 168.064C120.954 168.329 120.639 168.539 120.292 168.683C119.946 168.826 119.575 168.9 119.2 168.9ZM22.6499 27.6C21.9263 27.6013 21.2327 27.8894 20.721 28.4011C20.2093 28.9127 19.9212 29.6064 19.9199 30.33V166.045C19.9212 166.769 20.2093 167.462 20.721 167.974C21.2327 168.486 21.9263 168.774 22.6499 168.775H119.2C119.924 168.774 120.617 168.486 121.129 167.974C121.641 167.462 121.929 166.769 121.93 166.045V30.33C121.929 29.6064 121.641 28.9127 121.129 28.4011C120.617 27.8894 119.924 27.6013 119.2 27.6H22.6499Z" fill="#EBEBEB"/>
<path d="M227.35 168.9H130.8C130.043 168.9 129.317 168.599 128.782 168.064C128.246 167.528 127.945 166.802 127.945 166.045V30.33C127.952 29.5771 128.256 28.8574 128.79 28.3274C129.325 27.7973 130.047 27.5 130.8 27.5H227.35C228.108 27.5 228.834 27.8008 229.369 28.3362C229.905 28.8716 230.205 29.5978 230.205 30.355V166.045C230.205 166.802 229.905 167.528 229.369 168.064C228.834 168.599 228.108 168.9 227.35 168.9ZM130.8 27.6C130.077 27.6013 129.383 27.8894 128.871 28.4011C128.36 28.9127 128.072 29.6064 128.07 30.33V166.045C128.072 166.769 128.36 167.462 128.871 167.974C129.383 168.486 130.077 168.774 130.8 168.775H227.35C228.074 168.774 228.768 168.486 229.279 167.974C229.791 167.462 230.079 166.769 230.08 166.045V30.33C230.079 29.6064 229.791 28.9127 229.279 28.4011C228.768 27.8894 228.074 27.6013 227.35 27.6H130.8Z" fill="#EBEBEB"/>
<path d="M250 191.2H0V191.325H250V191.2Z" fill="#EBEBEB"/>
<path d="M202.205 45.665H188.76C184.496 45.665 181.04 49.1214 181.04 53.385V66.83C181.04 71.0937 184.496 74.55 188.76 74.55H202.205C206.469 74.55 209.925 71.0937 209.925 66.83V53.385C209.925 49.1214 206.469 45.665 202.205 45.665Z" fill="#F0F0F0"/>
<path d="M199.075 56.0248C199.075 58.4848 197.825 60.4748 195.365 60.4748C192.905 60.4748 191.655 58.4748 191.655 56.0248C191.655 53.5748 192.905 51.5698 195.365 51.5698C197.825 51.5698 199.075 53.5648 199.075 56.0248Z" fill="#FAFAFA"/>
<path d="M195.365 68.6401H202.23V64.5601C202.23 62.3051 199.155 60.4751 195.365 60.4751C191.575 60.4751 188.5 62.3051 188.5 64.5601V68.6401H195.365Z" fill="#FAFAFA"/>
<path d="M75.7448 55.3501H66.3548C63.378 55.3501 60.9648 57.7633 60.9648 60.7401V70.1301C60.9648 73.1069 63.378 75.5201 66.3548 75.5201H75.7448C78.7217 75.5201 81.1348 73.1069 81.1348 70.1301V60.7401C81.1348 57.7633 78.7217 55.3501 75.7448 55.3501Z" fill="#E6E6E6"/>
<path d="M70.6401 66.5249C70.943 66.1042 71.2937 65.72 71.6851 65.3799C71.9522 65.1438 72.1997 64.8863 72.4251 64.6099C72.5793 64.4055 72.6619 64.156 72.6601 63.8999C72.6656 63.7251 72.6273 63.5516 72.5487 63.3953C72.4701 63.239 72.3537 63.1048 72.2101 63.0049C71.8562 62.7729 71.4378 62.6591 71.0151 62.6799C70.572 62.6695 70.1335 62.771 69.7401 62.9749C69.3672 63.1758 69.0456 63.4598 68.8001 63.8049L66.9551 62.7249C67.3844 62.0768 67.9826 61.5581 68.6851 61.2249C69.4955 60.849 70.382 60.6659 71.2751 60.6899C72.2677 60.6431 73.2506 60.9032 74.0901 61.4349C74.4266 61.6618 74.7003 61.97 74.8857 62.3311C75.071 62.6922 75.162 63.0943 75.1501 63.4999C75.1583 63.8773 75.0868 64.2522 74.9401 64.5999C74.8187 64.8924 74.6497 65.1627 74.4401 65.3999C74.2401 65.6199 73.9851 65.8699 73.6701 66.1549C73.3686 66.4113 73.0923 66.6959 72.8451 67.0049C72.6675 67.2445 72.5759 67.5369 72.5851 67.8349H70.2801C70.2616 67.3715 70.3874 66.9138 70.6401 66.5249ZM70.3951 71.2599C70.2577 71.1329 70.1492 70.978 70.0767 70.8055C70.0043 70.633 69.9696 70.447 69.9751 70.2599C69.9711 70.0788 70.0061 69.8988 70.0777 69.7323C70.1493 69.5658 70.2558 69.4167 70.3901 69.2949C70.683 69.0433 71.0564 68.9049 71.4426 68.9049C71.8288 68.9049 72.2022 69.0433 72.4951 69.2949C72.6284 69.4171 72.734 69.5665 72.8048 69.733C72.8755 69.8994 72.9097 70.0791 72.9051 70.2599C72.9105 70.447 72.8759 70.633 72.8034 70.8055C72.731 70.978 72.6224 71.1329 72.4851 71.2599C72.1995 71.5207 71.8268 71.6652 71.4401 71.6652C71.0534 71.6652 70.6807 71.5207 70.3951 71.2599Z" fill="#FAFAFA"/>
<path d="M200.82 124.395H208.085C209.193 124.395 210.255 124.835 211.038 125.618C211.821 126.401 212.26 127.463 212.26 128.57V135.835C212.26 136.941 211.821 138.002 211.039 138.784C210.257 139.566 209.196 140.005 208.09 140.005H200.82C199.714 140.005 198.654 139.566 197.872 138.784C197.09 138.002 196.65 136.941 196.65 135.835V128.57C196.65 127.464 197.09 126.403 197.872 125.621C198.654 124.839 199.714 124.4 200.82 124.4V124.395Z" fill="#EBEBEB"/>
<path d="M204.13 133.045C204.365 132.72 204.637 132.423 204.94 132.16C205.148 131.976 205.341 131.776 205.515 131.56C205.634 131.404 205.698 131.212 205.695 131.015C205.701 130.88 205.671 130.745 205.61 130.625C205.549 130.504 205.458 130.401 205.345 130.325C205.072 130.143 204.748 130.053 204.42 130.07C204.085 130.06 203.753 130.135 203.454 130.287C203.155 130.439 202.9 130.663 202.71 130.94L201.28 130.105C201.611 129.599 202.074 129.194 202.62 128.935C203.246 128.645 203.931 128.503 204.62 128.52C205.389 128.483 206.151 128.685 206.8 129.1C207.062 129.276 207.274 129.516 207.418 129.797C207.561 130.077 207.631 130.39 207.62 130.705C207.626 130.996 207.572 131.286 207.46 131.555C207.366 131.782 207.234 131.992 207.07 132.175C206.883 132.381 206.684 132.576 206.475 132.76C206.244 132.96 206.029 133.179 205.835 133.415C205.701 133.603 205.631 133.829 205.635 134.06H203.855C203.84 133.701 203.936 133.347 204.13 133.045ZM203.94 136.71C203.836 136.613 203.753 136.496 203.698 136.364C203.643 136.233 203.617 136.092 203.62 135.95C203.617 135.81 203.644 135.671 203.698 135.542C203.752 135.412 203.833 135.296 203.935 135.2C204.162 135.006 204.451 134.899 204.75 134.899C205.049 134.899 205.338 135.006 205.565 135.2C205.668 135.295 205.75 135.412 205.805 135.541C205.86 135.67 205.888 135.81 205.885 135.95C205.888 136.093 205.861 136.234 205.805 136.365C205.749 136.496 205.665 136.614 205.56 136.71C205.453 136.814 205.327 136.896 205.187 136.95C205.048 137.004 204.9 137.03 204.75 137.025C204.601 137.029 204.453 137.003 204.314 136.948C204.175 136.894 204.048 136.813 203.94 136.71Z" fill="#FAFAFA"/>
<path d="M58.5554 85.6001H49.1654C46.1886 85.6001 43.7754 88.0133 43.7754 90.9901V100.38C43.7754 103.357 46.1886 105.77 49.1654 105.77H58.5554C61.5322 105.77 63.9454 103.357 63.9454 100.38V90.9901C63.9454 88.0133 61.5322 85.6001 58.5554 85.6001Z" fill="#EBEBEB"/>
<path d="M53.8598 90C53.2606 90 52.6672 90.1181 52.1136 90.3476C51.56 90.5771 51.0571 90.9134 50.6336 91.3374C50.2101 91.7613 49.8743 92.2646 49.6455 92.8184C49.4166 93.3723 49.2992 93.9658 49.2998 94.565C49.2998 97.065 51.3398 103.125 53.8598 103.125C56.3798 103.125 58.4198 97.08 58.4198 94.565C58.4205 93.9658 58.303 93.3723 58.0741 92.8184C57.8453 92.2646 57.5095 91.7613 57.086 91.3374C56.6625 90.9134 56.1596 90.5771 55.606 90.3476C55.0524 90.1181 54.4591 90 53.8598 90ZM53.8598 95.94C53.5879 95.94 53.322 95.8594 53.0959 95.7083C52.8698 95.5572 52.6935 95.3424 52.5895 95.0912C52.4854 94.8399 52.4582 94.5635 52.5112 94.2968C52.5643 94.03 52.6952 93.785 52.8875 93.5927C53.0798 93.4004 53.3248 93.2695 53.5916 93.2164C53.8583 93.1634 54.1347 93.1906 54.386 93.2947C54.6372 93.3987 54.852 93.575 55.0031 93.8011C55.1542 94.0272 55.2348 94.2931 55.2348 94.565C55.2296 94.9262 55.0824 95.2708 54.8251 95.5244C54.5678 95.7779 54.221 95.92 53.8598 95.92V95.94Z" fill="#FAFAFA"/>
<path d="M55.8745 123.22C56.0212 122.294 56.0212 121.351 55.8745 120.425L54.4695 120.24C54.3562 119.724 54.1886 119.221 53.9695 118.74L54.9995 117.765C54.5713 116.931 54.0163 116.169 53.3545 115.505L52.1045 116.185C51.7181 115.835 51.2958 115.526 50.8445 115.265L51.1045 113.87C50.2741 113.443 49.3814 113.149 48.4595 113L47.8545 114.275C47.5995 114.25 47.3545 114.235 47.0745 114.235C46.7945 114.235 46.5445 114.235 46.2895 114.275L45.6845 113C44.7577 113.146 43.8599 113.438 43.0245 113.865L43.2845 115.26C42.8333 115.521 42.4109 115.83 42.0245 116.18L40.7745 115.5C40.1127 116.164 39.5578 116.926 39.1295 117.76L40.1595 118.735C39.9405 119.216 39.7729 119.719 39.6595 120.235L38.2595 120.42C38.1062 121.345 38.1062 122.29 38.2595 123.215L39.6595 123.4C39.7729 123.916 39.9405 124.419 40.1595 124.9L39.1295 125.875C39.5568 126.709 40.1118 127.472 40.7745 128.135L42.0245 127.455C42.4109 127.805 42.8333 128.114 43.2845 128.375L43.0245 129.77C43.8599 130.197 44.7577 130.489 45.6845 130.635L46.2895 129.36C46.5445 129.385 46.7895 129.4 47.0745 129.4C47.3595 129.4 47.5745 129.4 47.8545 129.36L48.4595 130.635C49.3863 130.489 50.2841 130.197 51.1195 129.77L50.8595 128.375C51.3108 128.114 51.7331 127.805 52.1195 127.455L53.3695 128.135C54.0313 127.471 54.5863 126.709 55.0145 125.875L53.9995 124.89C54.218 124.409 54.3855 123.906 54.4995 123.39L55.8745 123.22ZM47.0745 124.935C46.458 124.936 45.8551 124.754 45.342 124.412C44.829 124.07 44.429 123.584 44.1926 123.014C43.9562 122.445 43.8941 121.818 44.0141 121.214C44.1342 120.609 44.4309 120.053 44.8669 119.617C45.3028 119.181 45.8583 118.885 46.463 118.765C47.0678 118.645 47.6945 118.707 48.2639 118.943C48.8333 119.179 49.3197 119.579 49.6616 120.093C50.0035 120.606 50.1855 121.208 50.1845 121.825C50.1832 122.649 49.8551 123.44 49.2722 124.023C48.6892 124.606 47.8989 124.934 47.0745 124.935Z" fill="#EBEBEB"/>
<path d="M60.3852 133.28C60.4211 133.049 60.4395 132.815 60.4402 132.58C60.4398 132.346 60.4215 132.112 60.3852 131.88L59.6802 131.79C59.6267 131.534 59.5463 131.284 59.4402 131.045L59.9402 130.545C59.7262 130.126 59.4478 129.743 59.1152 129.41L58.4902 129.75C58.296 129.576 58.085 129.422 57.8602 129.29L57.9902 128.595C57.5728 128.38 57.1238 128.234 56.6602 128.16L56.3602 128.8C56.2302 128.8 56.1002 128.8 55.9702 128.8C55.8402 128.8 55.7052 128.8 55.5752 128.8L55.2752 128.16C54.8116 128.234 54.3626 128.38 53.9452 128.595L54.0752 129.29C53.8504 129.422 53.6394 129.576 53.4452 129.75L52.8202 129.41C52.4875 129.743 52.2091 130.126 51.9952 130.545L52.4952 131.045C52.3891 131.284 52.3087 131.534 52.2552 131.79L51.5552 131.88C51.5164 132.111 51.498 132.346 51.5002 132.58C51.4984 132.815 51.5168 133.049 51.5552 133.28L52.2552 133.37C52.3087 133.625 52.3891 133.873 52.4952 134.11L51.9952 134.61C52.2096 135.028 52.4879 135.409 52.8202 135.74L53.4452 135.4C53.6368 135.577 53.8482 135.732 54.0752 135.86L53.9452 136.555C54.3626 136.77 54.8116 136.917 55.2752 136.99L55.5752 136.35C55.8362 136.377 56.0992 136.377 56.3602 136.35L56.6602 136.99C57.1238 136.917 57.5728 136.77 57.9902 136.555L57.8602 135.86C58.0872 135.732 58.2986 135.577 58.4902 135.4L59.1152 135.74C59.4474 135.409 59.7258 135.028 59.9402 134.61L59.4402 134.11C59.5462 133.873 59.6267 133.625 59.6802 133.37L60.3852 133.28ZM55.9852 134.135C55.6776 134.135 55.377 134.044 55.1213 133.873C54.8656 133.702 54.6662 133.459 54.5485 133.175C54.4309 132.891 54.4001 132.578 54.4601 132.277C54.5201 131.975 54.6682 131.698 54.8856 131.481C55.1031 131.263 55.3802 131.115 55.6818 131.055C55.9835 130.995 56.2961 131.026 56.5803 131.144C56.8644 131.261 57.1072 131.461 57.2781 131.716C57.449 131.972 57.5402 132.273 57.5402 132.58C57.5389 132.99 57.3767 133.382 57.0886 133.673C56.8005 133.964 56.4096 134.13 56.0002 134.135H55.9852Z" fill="#E0E0E0"/>
<path d="M214.87 123.19C215.058 123.051 215.237 122.899 215.405 122.735C215.57 122.568 215.722 122.39 215.86 122.2L215.43 121.64C215.572 121.422 215.689 121.189 215.78 120.945H216.49C216.635 120.499 216.709 120.033 216.71 119.565L216.025 119.365C216.014 119.104 215.974 118.846 215.905 118.595L216.49 118.195C216.348 117.748 216.134 117.327 215.855 116.95L215.19 117.185C215.108 117.083 215.021 116.987 214.93 116.895C214.835 116.8 214.74 116.715 214.64 116.63L214.875 115.965C214.495 115.691 214.075 115.476 213.63 115.33L213.23 115.915C212.976 115.85 212.716 115.81 212.455 115.795L212.255 115.115C211.786 115.113 211.32 115.188 210.875 115.335V116.04C210.631 116.134 210.398 116.253 210.18 116.395L209.615 115.965C209.232 116.245 208.894 116.582 208.615 116.965L209.045 117.525C208.904 117.746 208.785 117.98 208.69 118.225H207.985C207.84 118.671 207.766 119.136 207.765 119.605L208.445 119.805C208.459 120.065 208.5 120.323 208.565 120.575L207.98 120.98C208.126 121.425 208.341 121.845 208.615 122.225L209.28 121.985C209.365 122.085 209.45 122.185 209.545 122.28C209.64 122.375 209.735 122.46 209.835 122.54L209.6 123.205C209.977 123.484 210.397 123.698 210.845 123.84L211.245 123.255C211.496 123.324 211.754 123.365 212.015 123.375L212.215 124.06C212.685 124.059 213.152 123.985 213.6 123.84V123.13C213.843 123.037 214.076 122.92 214.295 122.78L214.87 123.19ZM211.155 120.69C210.937 120.472 210.789 120.195 210.729 119.894C210.67 119.592 210.7 119.279 210.818 118.995C210.936 118.711 211.135 118.468 211.391 118.298C211.647 118.127 211.947 118.036 212.255 118.036C212.562 118.036 212.863 118.127 213.118 118.298C213.374 118.468 213.573 118.711 213.691 118.995C213.809 119.279 213.84 119.592 213.78 119.894C213.72 120.195 213.572 120.472 213.355 120.69C213.21 120.835 213.039 120.949 212.85 121.028C212.661 121.106 212.458 121.146 212.254 121.145C212.049 121.145 211.847 121.104 211.658 121.025C211.47 120.946 211.298 120.83 211.155 120.685V120.69Z" fill="#F0F0F0"/>
<path d="M125 211.855C178.541 211.855 221.945 209.321 221.945 206.195C221.945 203.069 178.541 200.535 125 200.535C71.4584 200.535 28.0547 203.069 28.0547 206.195C28.0547 209.321 71.4584 211.855 125 211.855Z" fill="#F5F5F5"/>
<path d="M142.78 56.8803V49.0903L146.61 48.5503V56.3403L142.78 56.8803Z" fill="#263238"/>
<path d="M130.045 61.2199L127.175 56.6499L129.62 54.8999L132.485 59.4649L130.045 61.2199Z" fill="#263238"/>
<path d="M156.9 56.0302L159.77 50.6602L162.21 51.7252L159.345 57.1002L156.9 56.0302Z" fill="#263238"/>
<g opacity="0.5">
<path d="M142.78 56.8803V49.0903L146.61 48.5503V56.3403L142.78 56.8803Z" fill="white"/>
<path d="M130.045 61.2204L127.175 56.6504L129.62 54.9004L132.485 59.4654L130.045 61.2204Z" fill="white"/>
<path d="M156.899 56.0302L159.769 50.6602L162.209 51.7252L159.344 57.1002L156.899 56.0302Z" fill="white"/>
</g>
<path d="M147.154 49.8051L142.234 50.5001C142.056 50.5331 141.872 50.5256 141.697 50.4782C141.521 50.4308 141.359 50.3447 141.221 50.2262C141.084 50.1077 140.974 49.9599 140.901 49.7936C140.828 49.6272 140.793 49.4466 140.799 49.2651C140.811 48.8681 140.96 48.4875 141.222 48.189C141.484 47.8905 141.842 47.6928 142.234 47.6301L147.154 46.9401C147.333 46.9072 147.516 46.9146 147.691 46.9617C147.866 47.0088 148.028 47.0945 148.166 47.2124C148.303 47.3304 148.413 47.4776 148.486 47.6433C148.559 47.809 148.595 47.989 148.589 48.1701C148.577 48.5668 148.427 48.9469 148.166 49.2452C147.904 49.5435 147.546 49.7415 147.154 49.8051Z" fill="#263238"/>
<path d="M130.415 54.7752L126.77 57.3952C126.695 57.4585 126.607 57.5056 126.512 57.5335C126.417 57.5614 126.318 57.5695 126.22 57.5573C126.122 57.5451 126.027 57.5129 125.942 57.4626C125.857 57.4124 125.783 57.3452 125.725 57.2652C125.629 57.0818 125.605 56.8692 125.656 56.6687C125.708 56.4682 125.833 56.2941 126.005 56.1802L129.655 53.5652C129.73 53.5012 129.818 53.4536 129.912 53.4253C130.007 53.397 130.106 53.3888 130.204 53.401C130.302 53.4132 130.396 53.4457 130.481 53.4963C130.565 53.547 130.638 53.6147 130.695 53.6952C130.791 53.8778 130.816 54.0896 130.764 54.2892C130.712 54.4889 130.588 54.6621 130.415 54.7752Z" fill="#263238"/>
<path d="M162.62 52.3552L158.97 50.7652C158.883 50.721 158.806 50.6592 158.744 50.5837C158.682 50.5082 158.636 50.4207 158.61 50.3267C158.584 50.2327 158.577 50.1343 158.591 50.0376C158.605 49.9409 158.638 49.8482 158.69 49.7652C158.781 49.5781 158.938 49.4312 159.131 49.3528C159.324 49.2744 159.539 49.2699 159.735 49.3402L163.38 50.9352C163.468 50.9782 163.546 51.0394 163.609 51.1148C163.672 51.1901 163.718 51.2779 163.744 51.3724C163.771 51.4668 163.777 51.5658 163.762 51.6628C163.748 51.7598 163.713 51.8527 163.66 51.9352C163.569 52.1211 163.412 52.2667 163.22 52.3442C163.028 52.4217 162.814 52.4256 162.62 52.3552Z" fill="#263238"/>
<path opacity="0.7" d="M147.154 49.8051L142.234 50.5001C142.056 50.5331 141.872 50.5256 141.697 50.4782C141.521 50.4308 141.359 50.3447 141.221 50.2262C141.084 50.1077 140.974 49.9599 140.901 49.7936C140.828 49.6272 140.793 49.4466 140.799 49.2651C140.811 48.8681 140.96 48.4875 141.222 48.189C141.484 47.8905 141.842 47.6928 142.234 47.6301L147.154 46.9401C147.333 46.9072 147.516 46.9146 147.691 46.9617C147.866 47.0088 148.028 47.0945 148.166 47.2124C148.303 47.3304 148.413 47.4776 148.486 47.6433C148.559 47.809 148.595 47.989 148.589 48.1701C148.577 48.5668 148.427 48.9469 148.166 49.2452C147.904 49.5435 147.546 49.7415 147.154 49.8051Z" fill="white"/>
<path opacity="0.7" d="M130.415 54.7752L126.77 57.3952C126.695 57.4585 126.607 57.5056 126.512 57.5335C126.417 57.5614 126.318 57.5695 126.22 57.5573C126.122 57.5451 126.027 57.5129 125.942 57.4626C125.857 57.4124 125.783 57.3452 125.725 57.2652C125.629 57.0818 125.605 56.8692 125.656 56.6687C125.708 56.4682 125.833 56.2941 126.005 56.1802L129.655 53.5652C129.73 53.5012 129.818 53.4536 129.912 53.4253C130.007 53.397 130.106 53.3888 130.204 53.401C130.302 53.4132 130.396 53.4457 130.481 53.4963C130.565 53.547 130.638 53.6147 130.695 53.6952C130.791 53.8778 130.816 54.0896 130.764 54.2892C130.712 54.4889 130.588 54.6621 130.415 54.7752Z" fill="white"/>
<path opacity="0.7" d="M162.62 52.3552L158.97 50.7652C158.883 50.721 158.806 50.6592 158.744 50.5837C158.682 50.5082 158.636 50.4207 158.61 50.3267C158.584 50.2327 158.577 50.1343 158.591 50.0376C158.605 49.9409 158.638 49.8482 158.69 49.7652C158.781 49.5781 158.938 49.4312 159.131 49.3528C159.324 49.2744 159.539 49.2699 159.735 49.3402L163.38 50.9352C163.468 50.9782 163.546 51.0394 163.609 51.1148C163.672 51.1901 163.718 51.2779 163.744 51.3724C163.771 51.4668 163.777 51.5658 163.762 51.6628C163.748 51.7598 163.713 51.8527 163.66 51.9352C163.569 52.1211 163.412 52.2667 163.22 52.3442C163.028 52.4217 162.814 52.4256 162.62 52.3552Z" fill="white"/>
<path d="M144.695 105.65C131.38 107.52 120.585 98.2451 120.585 84.9301C120.585 71.6151 131.38 59.3001 144.695 57.4301C158.01 55.5601 168.805 64.8351 168.805 78.1501L172.095 77.6901C172.095 62.5551 159.825 52.0151 144.695 54.1401C129.565 56.2651 117.295 70.2601 117.295 85.3901C117.295 100.52 129.56 111.065 144.695 108.94V105.65Z" fill="#027471"/>
<path d="M135.115 98.6186L133.315 101.988L134.021 102.365L135.82 98.9954L135.115 98.6186Z" fill="#263238"/>
<path d="M155.359 60.7108L153.56 64.0806L154.265 64.4574L156.065 61.0876L155.359 60.7108Z" fill="#263238"/>
<path d="M125.759 72.8259L125.438 73.5591L128.554 74.9197L128.875 74.1866L125.759 72.8259Z" fill="#263238"/>
<path d="M134.322 64.2698L133.642 64.6938L135.436 67.5711L136.116 67.1471L134.322 64.2698Z" fill="#263238"/>
<path d="M128.489 92.6925L125.369 94.9312L125.836 95.5811L128.955 93.3425L128.489 92.6925Z" fill="#263238"/>
<path d="M163.552 67.5133L160.432 69.752L160.898 70.4019L164.018 68.1633L163.552 67.5133Z" fill="#263238"/>
<path d="M127.34 83.1714L122.542 83.8457L122.765 85.4301L127.563 84.7558L127.34 83.1714Z" fill="#263238"/>
<path d="M145.495 59.5H143.895V64.3H145.495V59.5Z" fill="#263238"/>
<path d="M145.495 98.7803H143.895V103.58H145.495V98.7803Z" fill="#263238"/>
<path d="M138.5 76.3399C138.314 76.5273 138.209 76.7807 138.209 77.0449C138.209 77.3091 138.314 77.5625 138.5 77.7499L143.87 82.3599L145.275 80.7549L139.91 76.1399C139.804 76.0595 139.684 76.0009 139.556 75.9675C139.428 75.934 139.294 75.9264 139.163 75.945C139.032 75.9636 138.906 76.0081 138.792 76.0759C138.678 76.1437 138.579 76.2334 138.5 76.3399Z" fill="#027471"/>
<path opacity="0.4" d="M138.5 76.3399C138.314 76.5273 138.209 76.7807 138.209 77.0449C138.209 77.3091 138.314 77.5625 138.5 77.7499L143.87 82.3599L145.275 80.7549L139.91 76.1399C139.804 76.0595 139.684 76.0009 139.556 75.9675C139.428 75.934 139.294 75.9264 139.163 75.945C139.032 75.9636 138.906 76.0081 138.792 76.0759C138.678 76.1437 138.579 76.2334 138.5 76.3399Z" fill="white"/>
<path d="M174.44 76.96L170.435 82.325L166.435 78.085L174.44 76.96Z" fill="#027471"/>
<path d="M153.829 70.97C153.724 70.8896 153.604 70.831 153.476 70.7976C153.347 70.7641 153.214 70.7564 153.083 70.775C152.951 70.7937 152.825 70.8382 152.711 70.906C152.598 70.9737 152.498 71.0635 152.419 71.17L145.149 79.46C144.76 79.4109 144.365 79.4597 143.999 79.602C143.633 79.7443 143.308 79.9756 143.054 80.275C142.234 81.215 142.234 82.55 143.054 83.275C143.874 84 145.214 83.775 146.054 82.855C146.313 82.5665 146.495 82.2171 146.583 81.8394C146.67 81.4616 146.66 81.0679 146.554 80.695L153.824 72.4C153.92 72.3072 153.996 72.1962 154.048 72.0736C154.1 71.951 154.127 71.8192 154.128 71.686C154.128 71.5528 154.102 71.4209 154.051 71.2979C154 71.1749 153.924 71.0634 153.829 70.97Z" fill="#027471"/>
<path d="M155.145 101.13L161.395 100.25L160.84 103.135L149.575 104.72L150.025 102.425L156.805 96.1602C157.443 95.5836 158.016 94.9399 158.515 94.2402C158.826 93.8002 159 93.2784 159.015 92.7402C159.028 92.5221 158.983 92.3045 158.885 92.1095C158.787 91.9146 158.638 91.7491 158.455 91.6302C157.957 91.3666 157.38 91.2904 156.83 91.4152C156.215 91.5026 155.627 91.7227 155.105 92.0602C154.543 92.4151 154.053 92.8732 153.66 93.4102L151.345 92.0552C151.993 91.0976 152.847 90.2979 153.845 89.7152C154.916 89.074 156.108 88.6588 157.345 88.4952C158.254 88.3429 159.184 88.3855 160.075 88.6202C160.791 88.8058 161.43 89.2137 161.9 89.7852C162.339 90.3483 162.569 91.0464 162.55 91.7602C162.541 92.7124 162.277 93.6447 161.785 94.4602C161.051 95.5991 160.157 96.6263 159.13 97.5102L155.145 101.13Z" fill="#263238"/>
<path d="M176.29 97.8401L173.85 98.1851L173.23 101.395L169.875 101.865L170.5 98.6501L162.5 99.7801L162.945 97.4001L171.7 86.7301L175.465 86.2051L167.3 96.3001L171.215 95.7501L171.765 92.8851L174.975 92.4351L174.42 95.2951L176.865 94.9551L176.29 97.8401Z" fill="#263238"/>
<path d="M186.11 81.69L189.215 81.25L178.29 102.81L175.21 103.24L186.11 81.69Z" fill="#263238"/>
<path d="M200.286 82.7148L199.841 85.0098L191.891 98.7698L188.066 99.3098L195.696 86.1648L190.871 86.8448L190.371 89.3448L187.311 89.7748L188.351 84.3998L200.286 82.7148Z" fill="#263238"/>
<path d="M151.286 119.5C150.812 119.447 150.353 119.301 149.936 119.07L150.666 117.57C151.036 117.786 151.442 117.932 151.866 118C152.318 118.073 152.778 118.073 153.231 118C153.649 117.958 154.052 117.818 154.406 117.59C154.532 117.515 154.638 117.409 154.713 117.282C154.788 117.156 154.83 117.012 154.836 116.865C154.841 116.755 154.81 116.647 154.748 116.557C154.685 116.466 154.595 116.399 154.491 116.365C154.135 116.246 153.768 116.165 153.396 116.125C152.981 116.064 152.57 115.979 152.166 115.87C151.85 115.778 151.564 115.606 151.336 115.37C151.088 115.082 150.964 114.709 150.991 114.33C150.988 113.816 151.14 113.313 151.426 112.885C151.743 112.423 152.171 112.046 152.671 111.79C153.252 111.485 153.884 111.287 154.536 111.205C155.032 111.13 155.536 111.119 156.036 111.17C156.452 111.204 156.859 111.314 157.236 111.495L156.561 112.965C156.258 112.801 155.927 112.694 155.586 112.65C155.209 112.6 154.827 112.6 154.451 112.65C154.019 112.695 153.605 112.846 153.246 113.09C153.115 113.167 153.006 113.276 152.929 113.406C152.851 113.536 152.807 113.684 152.801 113.835C152.796 113.912 152.812 113.989 152.845 114.059C152.878 114.129 152.928 114.189 152.991 114.235C153.131 114.342 153.293 114.415 153.466 114.45C153.656 114.49 153.926 114.535 154.276 114.585C154.687 114.631 155.095 114.708 155.496 114.815C155.806 114.909 156.087 115.081 156.311 115.315C156.43 115.451 156.522 115.609 156.579 115.781C156.637 115.953 156.659 116.134 156.646 116.315C156.651 116.834 156.497 117.341 156.206 117.77C155.881 118.231 155.451 118.606 154.951 118.865C154.36 119.189 153.717 119.404 153.051 119.5C152.465 119.585 151.871 119.585 151.286 119.5Z" fill="#263238"/>
<path d="M160.471 112L160.136 113.735L163.741 113.235L163.466 114.675L159.851 115.175L159.496 117.025L163.731 116.43L163.431 117.93L157.431 118.775L158.981 110.775L164.851 109.95L164.551 111.45L160.471 112Z" fill="#263238"/>
<path d="M172.025 113.225C171.618 113.811 171.053 114.27 170.395 114.55L171.745 116.755L169.85 117.025L168.63 115.025L167.1 115.24L166.665 117.475L164.86 117.73L166.41 109.73L169.575 109.285C170.334 109.117 171.129 109.23 171.81 109.605C172.079 109.786 172.294 110.035 172.435 110.327C172.575 110.619 172.636 110.942 172.61 111.265C172.623 111.963 172.419 112.648 172.025 113.225ZM170.3 112.945C170.465 112.783 170.595 112.589 170.681 112.375C170.767 112.161 170.808 111.931 170.8 111.7C170.815 111.549 170.788 111.396 170.722 111.26C170.656 111.123 170.553 111.007 170.425 110.925C170.092 110.762 169.713 110.716 169.35 110.795L167.93 110.995L167.385 113.77L168.915 113.555C169.43 113.504 169.915 113.29 170.3 112.945Z" fill="#263238"/>
<path d="M182.025 107.55L177.115 116L175.35 116.245L173.54 108.745L175.395 108.485L176.645 113.84L180.145 107.81L182.025 107.55Z" fill="#263238"/>
<path d="M182.665 107.46L184.475 107.205L182.925 115.205L181.115 115.46L182.665 107.46Z" fill="#263238"/>
<path d="M186.801 114.355C186.255 114.18 185.784 113.828 185.461 113.355C185.139 112.848 184.977 112.255 184.996 111.655C184.992 110.798 185.199 109.953 185.601 109.195C186.005 108.429 186.591 107.774 187.306 107.285C188.051 106.77 188.908 106.44 189.806 106.32C190.419 106.218 191.047 106.252 191.646 106.42C192.137 106.551 192.566 106.852 192.856 107.27L191.556 108.515C191.339 108.239 191.047 108.031 190.716 107.917C190.384 107.803 190.026 107.786 189.686 107.87C189.142 107.943 188.626 108.153 188.186 108.48C187.76 108.806 187.418 109.227 187.186 109.71C186.946 110.202 186.822 110.743 186.826 111.29C186.807 111.543 186.849 111.797 186.948 112.031C187.047 112.265 187.201 112.472 187.396 112.635C187.628 112.793 187.891 112.901 188.167 112.952C188.443 113.004 188.727 112.998 189.001 112.935C189.815 112.822 190.554 112.397 191.061 111.75L192.126 112.685C191.728 113.191 191.233 113.611 190.669 113.921C190.106 114.232 189.486 114.425 188.846 114.49C188.163 114.609 187.462 114.562 186.801 114.355Z" fill="#263238"/>
<path d="M195.931 107.04L195.596 108.77L199.201 108.27L198.926 109.705L195.311 110.205L194.956 112.05L199.191 111.455L198.891 112.955L192.891 113.8L194.446 105.8L200.301 105L200.001 106.5L195.931 107.04Z" fill="#263238"/>
<path d="M98.2346 72.2349C92.8896 72.2349 88.5596 75.3899 88.5596 79.2799C88.5596 82.1049 90.8546 84.5399 94.1596 85.6599C93.8053 87.2823 93.1961 88.8382 92.3546 90.2699C93.554 90.0914 94.6971 89.6426 95.6976 88.9575C96.698 88.2723 97.5297 87.3687 98.1296 86.3149H98.2346C103.58 86.3149 107.91 83.1649 107.91 79.2749C107.91 75.3849 103.58 72.2349 98.2346 72.2349Z" fill="#027471"/>
<path opacity="0.7" d="M98.2346 72.2349C92.8896 72.2349 88.5596 75.3899 88.5596 79.2799C88.5596 82.1049 90.8546 84.5399 94.1596 85.6599C93.8053 87.2823 93.1961 88.8382 92.3546 90.2699C93.554 90.0914 94.6971 89.6426 95.6976 88.9575C96.698 88.2723 97.5297 87.3687 98.1296 86.3149H98.2346C103.58 86.3149 107.91 83.1649 107.91 79.2749C107.91 75.3849 103.58 72.2349 98.2346 72.2349Z" fill="white"/>
<path d="M93.9694 80.635C94.5134 80.635 94.9544 80.194 94.9544 79.65C94.9544 79.106 94.5134 78.665 93.9694 78.665C93.4254 78.665 92.9844 79.106 92.9844 79.65C92.9844 80.194 93.4254 80.635 93.9694 80.635Z" fill="#263238"/>
<path d="M99.1543 79.6499C99.1543 79.8477 99.0957 80.041 98.9858 80.2055C98.8759 80.3699 98.7197 80.4981 98.537 80.5738C98.3543 80.6495 98.1532 80.6693 97.9592 80.6307C97.7652 80.5921 97.587 80.4969 97.4472 80.357C97.3073 80.2172 97.2121 80.039 97.1735 79.845C97.1349 79.651 97.1547 79.4499 97.2304 79.2672C97.3061 79.0845 97.4343 78.9283 97.5987 78.8184C97.7632 78.7085 97.9565 78.6499 98.1543 78.6499C98.4195 78.6499 98.6739 78.7553 98.8614 78.9428C99.0489 79.1303 99.1543 79.3847 99.1543 79.6499Z" fill="#263238"/>
<path d="M102.37 80.635C102.914 80.635 103.355 80.194 103.355 79.65C103.355 79.106 102.914 78.665 102.37 78.665C101.826 78.665 101.385 79.106 101.385 79.65C101.385 80.194 101.826 80.635 102.37 80.635Z" fill="#263238"/>
<path d="M185.999 180.025C185.999 180.025 186.064 173.35 183.634 174.23C181.204 175.11 185.999 180.025 185.999 180.025Z" fill="#027471"/>
<path d="M188.61 173.845C188.61 173.845 191.83 168.505 188.92 167.74C186.01 166.975 188.61 173.845 188.61 173.845Z" fill="#027471"/>
<path d="M201.335 170.075C201.335 170.075 208.02 169.73 206.51 167.225C205 164.72 201.335 170.075 201.335 170.075Z" fill="#027471"/>
<path d="M190.76 171.85C190.76 171.85 197.76 170.27 196.45 174.2C195.14 178.13 190.76 171.85 190.76 171.85Z" fill="#027471"/>
<path d="M185.674 186.06C185.674 186.06 182.999 180 181.499 182.155C179.999 184.31 185.674 186.06 185.674 186.06Z" fill="#027471"/>
<path d="M193.305 170.59C193.305 170.59 200.435 168.72 198.215 166.09C195.995 163.46 193.305 170.59 193.305 170.59Z" fill="#027471"/>
<path d="M198.695 169.855C198.695 169.855 204.335 172.625 201.735 174.435C199.135 176.245 198.695 169.855 198.695 169.855Z" fill="#027471"/>
<path d="M186.705 177.34C186.705 177.34 190.61 172.64 191.815 176.055C193.02 179.47 186.705 177.34 186.705 177.34Z" fill="#027471"/>
<g opacity="0.4">
<path d="M185.674 186.06C185.674 186.06 182.999 180 181.499 182.155C179.999 184.31 185.674 186.06 185.674 186.06Z" fill="white"/>
<path d="M193.305 170.59C193.305 170.59 200.435 168.72 198.215 166.09C195.995 163.46 193.305 170.59 193.305 170.59Z" fill="white"/>
<path d="M198.694 169.855C198.694 169.855 204.334 172.625 201.734 174.435C199.134 176.245 198.694 169.855 198.694 169.855Z" fill="white"/>
<path d="M186.704 177.34C186.704 177.34 190.609 172.64 191.814 176.055C193.019 179.47 186.704 177.34 186.704 177.34Z" fill="white"/>
</g>
<path d="M185.635 183.44C185.635 183.44 188.435 177.44 190.69 180.465C192.945 183.49 185.635 183.44 185.635 183.44Z" fill="#027471"/>
<path d="M185.679 189.75C184.831 185.84 184.953 181.782 186.034 177.93C188.324 170.43 195.349 168.665 202.449 169.8C203.014 169.89 202.764 170.74 202.204 170.65C198.434 170.05 194.204 169.99 190.919 172.27C188.569 173.915 187.239 176.53 186.599 179.27C185.849 182.649 185.83 186.149 186.544 189.535C186.659 190.095 185.799 190.315 185.679 189.755V189.75Z" fill="#027471"/>
<g opacity="0.3">
<path d="M185.679 189.75C184.831 185.84 184.953 181.782 186.034 177.93C188.324 170.43 195.349 168.665 202.449 169.8C203.014 169.89 202.764 170.74 202.204 170.65C198.434 170.05 194.204 169.99 190.919 172.27C188.569 173.915 187.239 176.53 186.599 179.27C185.849 182.649 185.83 186.149 186.544 189.535C186.659 190.095 185.799 190.315 185.679 189.755V189.75Z" fill="black"/>
</g>
<path d="M180.115 178C180.115 178 176.615 169.84 174.345 171.97C172.075 174.1 180.115 178 180.115 178Z" fill="#027471"/>
<path d="M179.815 169.32C179.815 169.32 180.645 161.415 176.925 161.755C173.205 162.095 179.815 169.32 179.815 169.32Z" fill="#027471"/>
<path d="M192.31 159.18C192.31 159.18 199.735 155.845 196.685 153.455C193.635 151.065 192.31 159.18 192.31 159.18Z" fill="#027471"/>
<path d="M181.205 165.955C181.205 165.955 188.35 160.955 188.935 166.335C189.52 171.715 181.205 165.955 181.205 165.955Z" fill="#027471"/>
<path d="M182.965 185.47C182.965 185.47 176.67 179.28 176.105 182.55C175.54 185.82 182.965 185.47 182.965 185.47Z" fill="#027471"/>
<path d="M183.43 163.31C183.43 163.31 190.56 157.92 186.63 155.685C182.7 153.45 183.43 163.31 183.43 163.31Z" fill="#027471"/>
<path d="M189.185 160.065C189.185 160.065 197.08 160.98 195.075 164.315C193.07 167.65 189.185 160.065 189.185 160.065Z" fill="#027471"/>
<path d="M179.5 174.405C179.5 174.405 181.45 166.98 184.64 170.615C187.83 174.25 179.5 174.405 179.5 174.405Z" fill="#027471"/>
<g opacity="0.4">
<path d="M182.965 185.47C182.965 185.47 176.67 179.28 176.105 182.55C175.54 185.82 182.965 185.47 182.965 185.47Z" fill="white"/>
<path d="M183.43 163.31C183.43 163.31 190.56 157.92 186.63 155.685C182.7 153.45 183.43 163.31 183.43 163.31Z" fill="white"/>
<path d="M189.185 160.065C189.185 160.065 197.08 160.98 195.075 164.315C193.07 167.65 189.185 160.065 189.185 160.065Z" fill="white"/>
<path d="M179.5 174.405C179.5 174.405 181.45 166.98 184.64 170.615C187.83 174.25 179.5 174.405 179.5 174.405Z" fill="white"/>
</g>
<path d="M181.53 182.3C181.53 182.3 181.53 173.765 185.7 176.47C189.87 179.175 181.53 182.3 181.53 182.3Z" fill="#027471"/>
<path d="M184.925 189.96C181.995 185.675 179.735 180.46 179.055 175.42C177.685 165.3 184.735 160.075 193.43 158.355C194.12 158.22 194.285 159.355 193.605 159.505C188.99 160.415 184.105 162.2 181.605 166.4C179.8 169.425 179.67 173.19 180.395 176.8C181.359 181.278 183.19 185.524 185.785 189.3C185.827 189.357 185.857 189.422 185.874 189.491C185.891 189.56 185.894 189.631 185.884 189.701C185.873 189.771 185.849 189.839 185.812 189.899C185.775 189.96 185.727 190.013 185.67 190.055C185.613 190.097 185.548 190.127 185.479 190.144C185.41 190.161 185.339 190.164 185.268 190.154C185.198 190.143 185.131 190.119 185.07 190.082C185.01 190.045 184.957 189.997 184.915 189.94L184.925 189.96Z" fill="#027471"/>
<g opacity="0.3">
<path d="M184.925 189.96C181.995 185.675 179.735 180.46 179.055 175.42C177.685 165.3 184.735 160.075 193.43 158.355C194.12 158.22 194.285 159.355 193.605 159.505C188.99 160.415 184.105 162.2 181.605 166.4C179.8 169.425 179.67 173.19 180.395 176.8C181.359 181.278 183.19 185.524 185.785 189.3C185.827 189.357 185.857 189.422 185.874 189.491C185.891 189.56 185.894 189.631 185.884 189.701C185.873 189.771 185.849 189.839 185.812 189.899C185.775 189.96 185.727 190.013 185.67 190.055C185.613 190.097 185.548 190.127 185.479 190.144C185.41 190.161 185.339 190.164 185.268 190.154C185.198 190.143 185.131 190.119 185.07 190.082C185.01 190.045 184.957 189.997 184.915 189.94L184.925 189.96Z" fill="black"/>
</g>
<path d="M179.285 180.145C179.285 180.145 180.945 174.61 182.725 175.96C184.505 177.31 179.285 180.145 179.285 180.145Z" fill="#027471"/>
<path d="M178.705 174.365C178.705 174.365 177.42 169.12 180.02 169.24C182.62 169.36 178.705 174.365 178.705 174.365Z" fill="#027471"/>
<path d="M169.16 168C169.16 168 163.725 166 165.62 164.315C167.515 162.63 169.16 168 169.16 168Z" fill="#027471"/>
<path d="M177.445 172.16C177.445 172.16 172.055 169.055 172.14 172.66C172.225 176.265 177.445 172.16 177.445 172.16Z" fill="#027471"/>
<path d="M178 185.21C178 185.21 181.79 180.905 182.475 183.065C183.16 185.225 178 185.21 178 185.21Z" fill="#027471"/>
<path d="M175.665 170.465C175.665 170.465 170.255 167.085 172.765 165.465C175.275 163.845 175.665 170.465 175.665 170.465Z" fill="#027471"/>
<path d="M171.395 168.5C171.395 168.5 166.025 169.34 167.71 171.5C169.395 173.66 171.395 168.5 171.395 168.5Z" fill="#027471"/>
<path d="M179.384 177.74C179.384 177.74 177.384 172.85 175.489 175.365C173.594 177.88 179.384 177.74 179.384 177.74Z" fill="#027471"/>
<g opacity="0.4">
<path d="M178 185.21C178 185.21 181.79 180.905 182.475 183.065C183.16 185.225 178 185.21 178 185.21Z" fill="white"/>
<path d="M175.665 170.465C175.665 170.465 170.255 167.085 172.765 165.465C175.275 163.845 175.665 170.465 175.665 170.465Z" fill="white"/>
<path d="M171.395 168.5C171.395 168.5 166.025 169.34 167.71 171.5C169.395 173.66 171.395 168.5 171.395 168.5Z" fill="white"/>
<path d="M179.385 177.74C179.385 177.74 177.385 172.85 175.49 175.365C173.595 177.88 179.385 177.74 179.385 177.74Z" fill="white"/>
</g>
<path d="M178.695 183.055C178.695 183.055 177.93 177.37 175.285 179.295C172.64 181.22 178.695 183.055 178.695 183.055Z" fill="#027471"/>
<path d="M177.04 188.255C178.746 185.244 179.687 181.86 179.78 178.4C179.815 171.62 174.47 168.35 168.31 167.46C167.81 167.39 167.81 168.16 168.31 168.23C171.58 168.7 175.105 169.73 177.215 172.47C178.715 174.43 179.165 176.935 178.99 179.36C178.741 182.346 177.856 185.244 176.395 187.86C176.155 188.29 176.81 188.695 177.055 188.26L177.04 188.255Z" fill="#027471"/>
<g opacity="0.3">
<path d="M177.04 188.255C178.746 185.244 179.687 181.86 179.78 178.4C179.815 171.62 174.47 168.35 168.31 167.46C167.81 167.39 167.81 168.16 168.31 168.23C171.58 168.7 175.105 169.73 177.215 172.47C178.715 174.43 179.165 176.935 178.99 179.36C178.741 182.346 177.856 185.244 176.395 187.86C176.155 188.29 176.81 188.695 177.055 188.26L177.04 188.255Z" fill="black"/>
</g>
<path d="M192.6 186.85L190.665 201.445C190.544 202.353 190.098 203.185 189.409 203.789C188.72 204.392 187.836 204.725 186.92 204.725H174.885C173.969 204.725 173.085 204.392 172.396 203.789C171.708 203.185 171.261 202.353 171.14 201.445L169.205 186.85H192.6Z" fill="#027471"/>
<path opacity="0.3" d="M192.6 186.85L190.665 201.445C190.544 202.353 190.098 203.185 189.409 203.789C188.72 204.392 187.836 204.725 186.92 204.725H174.885C173.969 204.725 173.085 204.392 172.396 203.789C171.708 203.185 171.261 202.353 171.14 201.445L169.205 186.85H192.6Z" fill="white"/>
<path d="M83.9344 158.815H80.6494V180.405H83.9344V158.815Z" fill="#263238"/>
<path opacity="0.5" d="M83.9344 158.815H80.6494V180.405H83.9344V158.815Z" fill="white"/>
<path d="M92.2748 196.575L84.5798 195.185V179.735C84.5804 179.621 84.5585 179.509 84.5153 179.403C84.472 179.298 84.4083 179.202 84.3279 179.122C84.2474 179.042 84.1518 178.978 84.0466 178.935C83.9413 178.891 83.8285 178.869 83.7148 178.87H80.8698C80.7558 178.869 80.6427 178.891 80.5372 178.935C80.4317 178.978 80.3357 179.041 80.2549 179.122C80.174 179.202 80.1099 179.298 80.0661 179.403C80.0223 179.508 79.9998 179.621 79.9998 179.735V195.185L72.3098 196.575C71.7699 196.671 71.2811 196.955 70.9292 197.375C70.5772 197.796 70.3845 198.327 70.3848 198.875L82.2898 197.8L94.1998 198.875C94.1991 198.327 94.006 197.797 93.6542 197.376C93.3024 196.956 92.8142 196.672 92.2748 196.575Z" fill="#263238"/>
<path d="M72.8848 201.21C72.8848 201.704 72.7381 202.188 72.4634 202.599C72.1887 203.01 71.7983 203.33 71.3415 203.52C70.8847 203.709 70.382 203.758 69.897 203.662C69.4121 203.565 68.9666 203.327 68.617 202.978C68.2674 202.628 68.0293 202.183 67.9328 201.698C67.8363 201.213 67.8858 200.71 68.0751 200.253C68.2643 199.796 68.5847 199.406 68.9958 199.131C69.407 198.857 69.8903 198.71 70.3848 198.71C71.0478 198.71 71.6837 198.973 72.1525 199.442C72.6214 199.911 72.8848 200.547 72.8848 201.21Z" fill="#027471"/>
<path d="M96.7002 201.21C96.7002 201.704 96.5536 202.188 96.2789 202.599C96.0042 203.01 95.6137 203.33 95.1569 203.52C94.7001 203.709 94.1974 203.758 93.7125 203.662C93.2275 203.565 92.7821 203.327 92.4324 202.978C92.0828 202.628 91.8447 202.183 91.7482 201.698C91.6518 201.213 91.7013 200.71 91.8905 200.253C92.0797 199.796 92.4001 199.406 92.8113 199.131C93.2224 198.857 93.7057 198.71 94.2002 198.71C94.5285 198.71 94.8536 198.775 95.1569 198.9C95.4602 199.026 95.7358 199.21 95.968 199.442C96.2001 199.674 96.3843 199.95 96.5099 200.253C96.6355 200.557 96.7002 200.882 96.7002 201.21Z" fill="#027471"/>
<path d="M84.2449 201.21C84.2449 202.59 83.6748 203.71 82.2898 203.71C80.9048 203.71 80.3398 202.59 80.3398 201.21C80.3398 199.83 80.9098 198.71 82.2898 198.71C83.6698 198.71 84.2449 199.83 84.2449 201.21Z" fill="#027471"/>
<g opacity="0.5">
<path d="M84.6543 195.195V198.015L85.5843 198.1V195.365L84.6543 195.195Z" fill="black"/>
<path d="M79.0195 195.36V198.095L79.9495 198.015V195.195L79.0195 195.36Z" fill="black"/>
</g>
<path d="M60.8448 139.15C60.6375 139.15 60.4329 139.196 60.2453 139.284C60.0576 139.372 59.8917 139.5 59.7591 139.66C59.6265 139.819 59.5305 140.005 59.4779 140.206C59.4253 140.406 59.4175 140.616 59.4548 140.82L62.5048 157.255C62.6427 158.002 63.0377 158.677 63.6214 159.163C64.205 159.648 64.9404 159.915 65.6998 159.915H113.765C114.048 159.915 114.329 159.859 114.591 159.75C114.852 159.642 115.09 159.483 115.29 159.282C115.491 159.081 115.649 158.843 115.757 158.581C115.865 158.319 115.92 158.038 115.92 157.755C115.92 156.942 115.597 156.162 115.022 155.588C114.447 155.013 113.668 154.69 112.855 154.69H85.4298C84.7029 154.69 83.9969 154.447 83.4242 153.999C82.8515 153.552 82.4451 152.925 82.2698 152.22L79.8148 142.31C79.5915 141.408 79.073 140.607 78.3417 140.035C77.6105 139.462 76.7086 139.151 75.7798 139.15H60.8448Z" fill="#263238"/>
<path d="M67.3348 152.22L64.8798 142.31C64.6565 141.408 64.138 140.607 63.4067 140.035C62.6755 139.462 61.7736 139.151 60.8448 139.15C60.6375 139.15 60.4329 139.196 60.2453 139.284C60.0576 139.372 59.8917 139.5 59.7591 139.66C59.6265 139.819 59.5305 140.005 59.4779 140.206C59.4253 140.406 59.4175 140.616 59.4548 140.82L62.5048 157.255C62.6427 158.002 63.0377 158.677 63.6214 159.163C64.205 159.648 64.9404 159.915 65.6998 159.915H98.8248C99.1086 159.916 99.3898 159.86 99.6522 159.752C99.9145 159.644 100.153 159.484 100.354 159.284C100.554 159.083 100.713 158.845 100.822 158.582C100.93 158.32 100.985 158.039 100.985 157.755C100.983 156.942 100.66 156.164 100.086 155.589C99.5111 155.015 98.7323 154.691 97.9198 154.69H70.4998C69.7718 154.692 69.0642 154.45 68.4903 154.002C67.9164 153.554 67.5095 152.927 67.3348 152.22Z" fill="#263238"/>
<path opacity="0.2" d="M67.3348 152.22L64.8798 142.31C64.6565 141.408 64.138 140.607 63.4067 140.035C62.6755 139.462 61.7736 139.151 60.8448 139.15C60.6375 139.15 60.4329 139.196 60.2453 139.284C60.0576 139.372 59.8917 139.5 59.7591 139.66C59.6265 139.819 59.5305 140.005 59.4779 140.206C59.4253 140.406 59.4175 140.616 59.4548 140.82L62.5048 157.255C62.6427 158.002 63.0377 158.677 63.6214 159.163C64.205 159.648 64.9404 159.915 65.6998 159.915H98.8248C99.1086 159.916 99.3898 159.86 99.6522 159.752C99.9145 159.644 100.153 159.484 100.354 159.284C100.554 159.083 100.713 158.845 100.822 158.582C100.93 158.32 100.985 158.039 100.985 157.755C100.983 156.942 100.66 156.164 100.086 155.589C99.5111 155.015 98.7323 154.691 97.9198 154.69H70.4998C69.7718 154.692 69.0642 154.45 68.4903 154.002C67.9164 153.554 67.5095 152.927 67.3348 152.22Z" fill="white"/>
<path d="M87.6396 92.125C87.6396 92.125 93.1096 93.755 90.5546 97.8L88.1796 94.34L87.6396 92.125Z" fill="#263238"/>
<path d="M107.345 112.975L109.73 109.475L112.09 110.225L112.52 111.175L109.58 115.38L107.345 112.975Z" fill="#DBB178"/>
<path d="M110.88 113.89C108.49 117.64 104.72 123.11 103.28 122.785C99.0496 121.84 93.2346 117.835 90.2496 113.435C89.799 112.771 89.6142 111.962 89.7318 111.169C89.8495 110.375 90.2609 109.655 90.8846 109.15V109.12C91.2101 108.854 91.5848 108.655 91.9873 108.535C92.3897 108.414 92.812 108.374 93.23 108.416C93.648 108.459 94.0535 108.584 94.4232 108.784C94.7929 108.983 95.1196 109.254 95.3846 109.58C95.4396 109.645 95.4896 109.715 95.5396 109.785C98.1846 113.58 101.54 117.18 102.09 117.485C102.735 117.855 104.41 116.27 107.955 111.79L110.88 113.89Z" fill="#027471"/>
<path opacity="0.6" d="M110.88 113.89C108.49 117.64 104.72 123.11 103.28 122.785C99.0496 121.84 93.2346 117.835 90.2496 113.435C89.799 112.771 89.6142 111.962 89.7318 111.169C89.8495 110.375 90.2609 109.655 90.8846 109.15V109.12C91.2101 108.854 91.5848 108.655 91.9873 108.535C92.3897 108.414 92.812 108.374 93.23 108.416C93.648 108.459 94.0535 108.584 94.4232 108.784C94.7929 108.983 95.1196 109.254 95.3846 109.58C95.4396 109.645 95.4896 109.715 95.5396 109.785C98.1846 113.58 101.54 117.18 102.09 117.485C102.735 117.855 104.41 116.27 107.955 111.79L110.88 113.89Z" fill="white"/>
<path d="M110.934 110.865L115.659 111.79L113.459 107.83C113.459 107.83 110.599 107.83 109.729 109.475L110.934 110.865Z" fill="#DBB178"/>
<path opacity="0.2" d="M97.25 120.05C93.825 117.71 93.37 112.22 93.37 112.22L91.43 111.335L90.5 113.805C92.3584 116.274 94.6446 118.389 97.25 120.05Z" fill="black"/>
<path d="M119 110.095L116.98 106.875L113.465 107.83L115.66 111.79L119 110.095Z" fill="#DBB178"/>
<path d="M92.7597 132.07L75.9997 133.17C75.9997 133.17 75.8797 128.67 75.2947 124.525C75.1132 123.082 74.8258 121.655 74.4347 120.255C73.9997 118.825 73.4347 117.22 72.7847 115.355C72.6997 115.125 72.6147 114.895 72.5197 114.655C72.2997 114.075 72.0747 113.47 71.8197 112.84V112.81C71.5933 112.194 71.6178 111.514 71.8881 110.917C72.1585 110.319 72.6529 109.851 73.2647 109.615C73.3799 109.57 73.4987 109.535 73.6197 109.51C74.6847 109.285 75.7597 109.08 76.8497 108.91L77.7897 108.77C80.2993 108.396 82.8287 108.169 85.3647 108.09C86.6797 108.09 88.0847 108.13 89.2847 108.185L90.2847 108.235C91.5547 108.31 92.4347 108.39 92.4347 108.39C92.4347 108.39 92.9847 108.5 93.3097 111.445C93.3171 111.612 93.3338 111.779 93.3597 111.945C93.3997 112.555 93.4347 113.325 93.4497 114.25C93.4997 118.03 93.2747 124.375 92.7597 132.07Z" fill="#027471"/>
<path opacity="0.6" d="M92.7597 132.07L75.9997 133.17C75.9997 133.17 75.8797 128.67 75.2947 124.525C75.1132 123.082 74.8258 121.655 74.4347 120.255C73.9997 118.825 73.4347 117.22 72.7847 115.355C72.6997 115.125 72.6147 114.895 72.5197 114.655C72.2997 114.075 72.0747 113.47 71.8197 112.84V112.81C71.5933 112.194 71.6178 111.514 71.8881 110.917C72.1585 110.319 72.6529 109.851 73.2647 109.615C73.3799 109.57 73.4987 109.535 73.6197 109.51C74.6847 109.285 75.7597 109.08 76.8497 108.91L77.7897 108.77C80.2993 108.396 82.8287 108.169 85.3647 108.09C86.6797 108.09 88.0847 108.13 89.2847 108.185L90.2847 108.235C91.5547 108.31 92.4347 108.39 92.4347 108.39C92.4347 108.39 92.9847 108.5 93.3097 111.445C93.3171 111.612 93.3338 111.779 93.3597 111.945C93.3997 112.555 93.4347 113.325 93.4497 114.25C93.4997 118.03 93.2747 124.375 92.7597 132.07Z" fill="white"/>
<path d="M78.375 108.69L82.555 114.26L85.555 111.69L89.455 113.57L87.345 108.115C86.695 108.115 86.025 108.115 85.38 108.115C83.0362 108.179 80.6977 108.371 78.375 108.69Z" fill="#027471"/>
<path opacity="0.9" d="M78.375 108.69L82.555 114.26L85.555 111.69L89.455 113.57L87.345 108.115C86.695 108.115 86.025 108.115 85.38 108.115C83.0362 108.179 80.6977 108.371 78.375 108.69Z" fill="white"/>
<path d="M115.37 199.285H111.805L113.43 172.375H120.1L115.37 199.285Z" fill="#DBB178"/>
<path d="M111.409 198.945C111.369 198.605 115.624 198.285 115.624 198.285C115.624 198.285 118.584 200.565 121.184 200.785C123.784 201.005 122.589 202.73 119.774 203.12L112.809 204.12C110.809 204.415 111.819 202.5 111.409 198.945Z" fill="#263238"/>
<path d="M117.76 199.09C117.217 199.058 116.681 198.956 116.165 198.785C116.144 198.78 116.125 198.77 116.11 198.755C116.1 198.721 116.1 198.684 116.11 198.65C116.11 198.605 116.345 197.55 116.89 197.24C116.972 197.19 117.063 197.159 117.158 197.148C117.253 197.136 117.349 197.146 117.44 197.175C117.705 197.255 117.775 197.405 117.78 197.51C117.78 197.725 117.575 197.965 117.28 198.185C117.565 198.105 117.866 198.105 118.15 198.185C118.212 198.209 118.269 198.244 118.317 198.29C118.365 198.335 118.403 198.39 118.43 198.45C118.472 198.529 118.49 198.618 118.482 198.707C118.474 198.796 118.44 198.88 118.385 198.95C118.203 199.077 117.979 199.127 117.76 199.09ZM116.615 198.64C117.255 198.805 118.005 198.915 118.17 198.735C118.21 198.7 118.2 198.625 118.17 198.535C118.158 198.506 118.14 198.479 118.116 198.458C118.093 198.436 118.065 198.42 118.035 198.41C117.55 198.353 117.058 198.432 116.615 198.64ZM117.195 197.39C117.121 197.39 117.048 197.411 116.985 197.45C116.7 197.698 116.499 198.028 116.41 198.395C116.96 198.08 117.51 197.685 117.51 197.515C117.51 197.485 117.45 197.445 117.355 197.41C117.303 197.396 117.249 197.389 117.195 197.39Z" fill="#027471"/>
<path opacity="0.2" d="M113.145 177.08L119.24 177.265L120.1 172.375H113.43L113.145 177.08Z" fill="black"/>
<path d="M98.2597 199.74L94.8447 199.285L100.25 169.49L106.99 171.415L98.2597 199.74Z" fill="#DBB178"/>
<path d="M94.4002 198.81C94.4002 198.46 98.6602 198.81 98.6602 198.81C98.6602 198.81 101.245 201.505 103.78 202.11C106.315 202.715 104.88 204.25 102.04 204.21L95.0002 204.125C92.9652 204.105 94.2652 202.4 94.4002 198.81Z" fill="#263238"/>
<path d="M100.9 199.92C100.277 199.843 99.6728 199.657 99.1148 199.37L99.0798 199.34C99.0775 199.335 99.0762 199.329 99.0762 199.323C99.0762 199.317 99.0775 199.311 99.0798 199.305C99.0723 199.29 99.0684 199.272 99.0684 199.255C99.0684 199.238 99.0723 199.221 99.0798 199.205C99.0798 199.165 99.4698 198.165 100.08 197.93C100.166 197.891 100.26 197.87 100.355 197.87C100.45 197.87 100.544 197.891 100.63 197.93C100.88 198.055 100.925 198.205 100.915 198.31C100.915 198.525 100.645 198.73 100.33 198.9C100.623 198.864 100.921 198.911 101.19 199.035C101.247 199.066 101.298 199.108 101.337 199.16C101.377 199.212 101.405 199.272 101.42 199.335C101.452 199.417 101.458 199.506 101.437 199.591C101.417 199.676 101.371 199.752 101.305 199.81C101.187 199.894 101.044 199.933 100.9 199.92ZM99.5648 199.28C100.175 199.54 100.9 199.78 101.065 199.61C101.105 199.58 101.115 199.51 101.065 199.41C101.057 199.38 101.044 199.353 101.025 199.329C101.006 199.304 100.982 199.285 100.955 199.27C100.499 199.152 100.019 199.155 99.5648 199.28ZM100.265 198.13C100.21 198.132 100.156 198.144 100.105 198.165C99.7898 198.365 99.5437 198.656 99.3998 199C100.01 198.775 100.585 198.45 100.595 198.29C100.595 198.26 100.545 198.21 100.46 198.17C100.407 198.143 100.349 198.127 100.29 198.12L100.265 198.13Z" fill="#027471"/>
<path opacity="0.2" d="M106.99 171.415L100.25 169.49L99.1846 175.365L105.425 176.49L106.99 171.415Z" fill="black"/>
<path d="M111.665 174.685L120.24 175.135C122.435 165.025 124.625 153.88 124.19 151.435C123.365 146.75 117 141.98 92.29 137.935L80.79 155.215C80.79 155.215 97.61 154.43 112.94 154.43C112.935 154.44 112.08 164.06 111.665 174.685Z" fill="#027471"/>
<path opacity="0.1" d="M111.665 174.685L120.24 175.135C122.435 165.025 124.625 153.88 124.19 151.435C123.365 146.75 117 141.98 92.29 137.935L80.79 155.215C80.79 155.215 97.61 154.43 112.94 154.43C112.935 154.44 112.08 164.06 111.665 174.685Z" fill="black"/>
<path d="M111.09 173.34L111.345 175.585L120.74 175.905L121.2 173.84L111.09 173.34Z" fill="#027471"/>
<path d="M86.8145 108.105H85.3645C83.2845 108.17 81.2095 108.34 79.1445 108.605C80.0445 109.68 82.8495 111.355 84.7295 111.355C87.3545 111.335 86.7695 109.385 86.8145 108.105Z" fill="#DBB178"/>
<path d="M98.3347 172.945L107.1 174.37C110.66 164.405 114.22 153.8 114.16 151.41C114.04 146.65 112.995 144.18 95.7797 140.34C95.7797 140.34 94.8647 139.005 92.7797 132.09L75.9997 133.19C75.9997 133.19 68.3447 147.29 74.2697 153.31C75.5797 154.65 78.1547 155.25 80.7697 155.225C80.7697 155.225 86.8197 155.255 101.77 154.555C101.775 154.555 99.9997 163.085 98.3347 172.945Z" fill="#027471"/>
<path d="M97.9845 171.415L108.139 173.13L107.174 175.265L97.9395 173.75L97.9845 171.415Z" fill="#027471"/>
<path opacity="0.1" d="M111.09 173.34L111.345 175.585L120.74 175.905L121.2 173.84L111.09 173.34Z" fill="black"/>
<path d="M85.545 106.66C85.3521 107.895 85.4031 109.155 85.695 110.37L81.1 109.695C81.0011 109.68 80.9068 109.643 80.8245 109.586C80.7423 109.529 80.6744 109.454 80.626 109.366C80.5776 109.279 80.5501 109.181 80.5456 109.081C80.5411 108.981 80.5597 108.882 80.6 108.79C81.23 107.36 81.48 104.48 81.635 103.155C81.72 102.355 81.755 101.625 81.76 101.115C81.765 100.605 81.76 100.415 81.76 100.415L83.815 101.355L87.17 102.89C86.3966 104.034 85.8453 105.313 85.545 106.66Z" fill="#DBB178"/>
<path opacity="0.2" d="M87.18 102.89C86.3991 104.033 85.8394 105.311 85.53 106.66C83.8534 105.995 82.4688 104.754 81.625 103.16C81.715 102.36 81.75 101.63 81.755 101.12C82.485 101.195 83.165 101.27 83.815 101.36L87.18 102.89Z" fill="black"/>
<path d="M87.4253 99.6101C87.2903 101.145 88.0753 102.385 89.1753 102.385C90.2753 102.385 91.2803 101.145 91.4153 99.6101C91.5503 98.0751 90.7653 96.8301 89.6653 96.8301C88.5653 96.8301 87.5603 98.0751 87.4253 99.6101Z" fill="#027471"/>
<path opacity="0.5" d="M87.2299 99.6101C87.0949 101.145 87.8799 102.385 88.9799 102.385C90.0799 102.385 91.0799 101.145 91.2149 99.6101C91.3499 98.0751 90.5649 96.8301 89.4649 96.8301C88.3649 96.8301 87.3599 98.0751 87.2299 99.6101Z" fill="black"/>
<path d="M79.5349 96.9102C80.3549 100.67 80.6399 102.91 82.8599 104.625C83.5756 105.194 84.4334 105.555 85.3401 105.67C86.2468 105.785 87.1676 105.649 88.0026 105.278C88.8376 104.906 89.5548 104.313 90.0761 103.562C90.5975 102.812 90.9032 101.932 90.9599 101.02C91.2549 97.5202 89.8649 91.9552 85.9049 90.8902C85.0538 90.6361 84.1507 90.6105 83.2866 90.8161C82.4224 91.0216 81.6275 91.451 80.982 92.0611C80.3364 92.6713 79.8628 93.4406 79.6087 94.2918C79.3547 95.143 79.3293 96.046 79.5349 96.9102Z" fill="#DBB178"/>
<path d="M78.6649 100.835C79.2739 101.57 80.1183 102.072 81.0549 102.255C82.2399 102.455 82.5099 101.36 81.9049 100.295C81.3649 99.34 80.0899 98.085 79.0299 98.365C77.9699 98.645 77.8999 99.91 78.6649 100.835Z" fill="#DBB178"/>
<path d="M85.4694 97.2802C85.5194 97.5902 85.7194 97.8202 85.9244 97.7802C86.1294 97.7402 86.2494 97.4852 86.2044 97.1802C86.1594 96.8752 85.9544 96.6402 85.7494 96.6802C85.5444 96.7202 85.4244 96.9702 85.4694 97.2802Z" fill="#263238"/>
<path d="M88.9997 96.8649C89.0447 97.1749 89.2497 97.4049 89.4497 97.3649C89.6497 97.3249 89.7797 97.0699 89.7347 96.7599C89.6897 96.4499 89.4797 96.2249 89.2797 96.2599C89.0797 96.2949 88.9247 96.5549 88.9997 96.8649Z" fill="#263238"/>
<path d="M87.8848 97.1499C88.4021 98.0508 89.0359 98.8796 89.7698 99.6149C89.5785 99.791 89.3507 99.9226 89.1026 100C88.8545 100.078 88.5923 100.1 88.3348 100.065L87.8848 97.1499Z" fill="#C0854B"/>
<path d="M84.2152 96.285C84.1856 96.2917 84.1548 96.2917 84.1252 96.285C84.1038 96.2736 84.085 96.2579 84.0698 96.239C84.0547 96.2201 84.0435 96.1983 84.0369 96.1749C84.0304 96.1516 84.0286 96.1272 84.0318 96.1031C84.0349 96.0791 84.0429 96.0559 84.0552 96.035C84.1897 95.7799 84.3851 95.5619 84.6241 95.4006C84.8631 95.2392 85.1383 95.1394 85.4252 95.11C85.449 95.108 85.4729 95.1108 85.4956 95.1184C85.5183 95.1259 85.5391 95.138 85.5569 95.154C85.5747 95.1699 85.5891 95.1893 85.5991 95.211C85.6091 95.2326 85.6146 95.2561 85.6152 95.28C85.6172 95.3041 85.6144 95.3283 85.6069 95.3512C85.5994 95.3742 85.5874 95.3954 85.5715 95.4136C85.5557 95.4317 85.5363 95.4466 85.5146 95.4571C85.4929 95.4677 85.4693 95.4738 85.4452 95.475C85.2196 95.5005 85.0038 95.5813 84.8171 95.7105C84.6304 95.8396 84.4786 96.0129 84.3752 96.215C84.3563 96.239 84.3319 96.2579 84.304 96.2701C84.2761 96.2823 84.2456 96.2874 84.2152 96.285Z" fill="#263238"/>
<path d="M90.2948 95.5C90.2649 95.501 90.2354 95.4941 90.209 95.4801C90.1827 95.466 90.1605 95.4453 90.1448 95.42C90.0179 95.2223 89.8473 95.0564 89.6462 94.9351C89.4451 94.8137 89.2188 94.7401 88.9848 94.72C88.9415 94.7128 88.9023 94.6905 88.8739 94.6571C88.8456 94.6237 88.8301 94.5813 88.8301 94.5375C88.8301 94.4937 88.8456 94.4513 88.8739 94.4179C88.9023 94.3844 88.9415 94.3622 88.9848 94.355C89.2784 94.3744 89.5633 94.4623 89.8168 94.6117C90.0704 94.761 90.2854 94.9676 90.4448 95.215C90.4721 95.2549 90.4827 95.304 90.4743 95.3517C90.4659 95.3993 90.4391 95.4418 90.3998 95.47C90.368 95.4891 90.3318 95.4994 90.2948 95.5Z" fill="#263238"/>
<path d="M80.2695 101.855C80.2695 101.855 82.6595 99.4101 81.4895 93.4101C81.4895 93.4101 83.4145 95.0451 87.8845 93.8351C87.8845 93.8351 85.2395 94.0951 84.0295 92.8351C84.0295 92.8351 86.4945 93.9801 90.4795 92.8351C90.4795 92.8351 89.7695 88.8001 85.4795 88.5951C85.4795 88.5951 86.8645 87.4301 88.1995 87.6551C88.1995 87.6551 86.8345 86.4801 83.3695 88.7651L81.9995 89.3251C81.9995 89.3251 78.1395 87.9351 75.9995 91.2051C74.2945 93.7901 75.1495 101.93 80.2695 101.855Z" fill="#263238"/>
<path d="M89.035 100.75C89.035 100.75 87.825 100.445 84.415 100.37C84.795 101.405 85.52 102.26 87.27 102.28C87.4881 102.304 87.7088 102.283 87.9183 102.218C88.1278 102.153 88.3215 102.045 88.4873 101.901C88.6531 101.758 88.7873 101.581 88.8816 101.383C88.9759 101.185 89.0281 100.969 89.035 100.75Z" fill="#263238"/>
<path d="M86.5002 101.455C87.1723 101.431 87.8351 101.618 88.3951 101.99C88.068 102.199 87.6828 102.299 87.2952 102.275C86.6258 102.303 85.965 102.116 85.4102 101.74C85.7345 101.533 86.1159 101.433 86.5002 101.455Z" fill="#A02724"/>
<path d="M88.8802 100.72C88.8446 100.846 88.7748 100.959 88.6785 101.047C88.5823 101.136 88.4634 101.195 88.3352 101.22C87.3281 101.197 86.3246 101.09 85.3352 100.9C85.1771 100.886 85.0248 100.833 84.8922 100.746C84.7596 100.659 84.6507 100.54 84.5752 100.4C86.0163 100.395 87.4556 100.502 88.8802 100.72Z" fill="white"/>
<path d="M78.415 98.2052V94.1702C78.4147 92.976 78.8 91.8136 79.5135 90.8559C80.227 89.8983 81.2306 89.1966 82.375 88.8552L83.725 88.6152C82.5516 88.9653 81.5226 89.6848 80.791 90.6668C80.0595 91.6488 79.6646 92.8407 79.665 94.0652V98.2052H78.415Z" fill="#027471"/>
<path d="M81.5499 100.16C81.6849 101.695 80.8999 102.935 79.7999 102.935C78.6999 102.935 77.6949 101.695 77.5649 100.16C77.4349 98.6249 78.2149 97.3799 79.3149 97.3799C80.4149 97.3799 81.4149 98.6249 81.5499 100.16Z" fill="#027471"/>
<path opacity="0.5" d="M81.5499 100.16C81.6849 101.695 80.8999 102.935 79.7999 102.935C78.6999 102.935 77.6949 101.695 77.5649 100.16C77.4349 98.6249 78.2149 97.3799 79.3149 97.3799C80.4149 97.3799 81.4149 98.6249 81.5499 100.16Z" fill="black"/>
<path d="M80.885 100.16C81.015 101.695 80.235 102.935 79.13 102.935C78.025 102.935 77.03 101.695 76.895 100.16C76.76 98.6249 77.545 97.3799 78.645 97.3799C79.745 97.3799 80.75 98.6249 80.885 100.16Z" fill="#027471"/>
<path opacity="0.3" d="M79.4996 100.565L79.4096 99.7552H79.5646C79.3646 98.9602 78.8046 98.3652 78.1896 98.3652C77.5746 98.3652 77.1246 98.9602 77.0596 99.7552H77.1646L77.2546 100.565H77.1346C77.3346 101.36 77.8946 101.95 78.5046 101.95C79.1146 101.95 79.5746 101.36 79.6346 100.565H79.4996Z" fill="white"/>
<path d="M72.3145 100.5L74.4995 96.2002L76.2645 100.37C76.2645 100.37 74.4944 102.62 72.6694 102.295L72.3145 100.5Z" fill="#DBB178"/>
<path d="M77.895 94.6152L79.18 98.1902L76.26 100.37L74.5 96.2002L77.895 94.6152Z" fill="#DBB178"/>
<path d="M72.8902 105.13L74.9902 101.595L74.7701 100.155L72.9202 99.5L70.2852 103.6L72.8902 105.13Z" fill="#DBB178"/>
<path d="M74.4053 102.93L70.5703 111.37C70.5703 111.37 72.4352 109.695 73.4652 109.455C75.1052 109.07 80.0553 110.565 75.0403 116.01C75.0403 116.01 65.1103 122.215 63.0853 119.81C61.5103 117.94 68.2003 106.575 71.2653 101.595L74.4053 102.93Z" fill="#027471"/>
<path opacity="0.6" d="M74.4053 102.93L70.5703 111.37C70.5703 111.37 72.4352 109.695 73.4652 109.455C75.1052 109.07 80.0553 110.565 75.0403 116.01C75.0403 116.01 65.1103 122.215 63.0853 119.81C61.5103 117.94 68.2003 106.575 71.2653 101.595L74.4053 102.93Z" fill="white"/>
<path opacity="0.2" d="M70.57 111.37L69.5 114.665L72.64 109.835C71.9077 110.287 71.2152 110.8 70.57 111.37Z" fill="black"/>
<path d="M84.935 103.885C84.5151 103.896 84.0951 103.869 83.68 103.805C82.6099 103.42 81.5745 102.945 80.585 102.385L80.785 102.025C81.7459 102.564 82.7492 103.024 83.785 103.4C84.8498 103.488 85.9201 103.488 86.985 103.4L87.015 103.815C86.935 103.815 85.885 103.885 84.935 103.885Z" fill="#027471"/>
<path d="M85.3848 103.97L87.3848 103.82C87.3848 103.82 87.3298 103.2 86.3848 103.225C85.4398 103.25 85.3848 103.97 85.3848 103.97Z" fill="#027471"/>
<g opacity="0.5">
<path d="M84.935 103.885C84.5151 103.896 84.0951 103.869 83.68 103.805C82.6099 103.42 81.5745 102.945 80.585 102.385L80.785 102.025C81.7459 102.564 82.7492 103.024 83.785 103.4C84.8498 103.488 85.9201 103.488 86.985 103.4L87.015 103.815C86.935 103.815 85.885 103.885 84.935 103.885Z" fill="black"/>
<path d="M85.3848 103.97L87.3848 103.82C87.3848 103.82 87.3298 103.2 86.3848 103.225C85.4398 103.25 85.3848 103.97 85.3848 103.97Z" fill="black"/>
</g>
<path d="M165.03 204.27C164.925 204.274 164.82 204.257 164.722 204.221C164.623 204.184 164.532 204.128 164.455 204.057C164.378 203.985 164.316 203.899 164.272 203.804C164.228 203.708 164.204 203.605 164.2 203.5L159.2 145.61C159.191 145.111 158.996 144.633 158.653 144.27C158.31 143.907 157.843 143.686 157.345 143.65H133.725C133.227 143.686 132.76 143.907 132.417 144.27C132.074 144.633 131.879 145.111 131.87 145.61L126.87 203.5C126.869 203.607 126.847 203.713 126.805 203.812C126.763 203.91 126.701 203.999 126.623 204.073C126.546 204.147 126.454 204.205 126.354 204.243C126.254 204.281 126.147 204.299 126.04 204.295C125.824 204.251 125.633 204.126 125.506 203.946C125.38 203.765 125.327 203.543 125.36 203.325L130.36 145.43C130.535 143.405 131.98 141.88 133.725 141.88H157.345C159.09 141.88 160.535 143.405 160.71 145.43L165.71 203.325C165.743 203.543 165.69 203.765 165.564 203.946C165.437 204.126 165.246 204.251 165.03 204.295V204.27Z" fill="#027471"/>
<g opacity="0.4">
<path d="M165.03 204.27C164.925 204.274 164.82 204.257 164.722 204.221C164.623 204.184 164.532 204.128 164.455 204.057C164.378 203.985 164.316 203.899 164.272 203.804C164.228 203.708 164.204 203.605 164.2 203.5L159.2 145.61C159.191 145.111 158.996 144.633 158.653 144.27C158.31 143.907 157.843 143.686 157.345 143.65H133.725C133.227 143.686 132.76 143.907 132.417 144.27C132.074 144.633 131.879 145.111 131.87 145.61L126.87 203.5C126.869 203.607 126.847 203.713 126.805 203.812C126.763 203.91 126.701 203.999 126.623 204.073C126.546 204.147 126.454 204.205 126.354 204.243C126.254 204.281 126.147 204.299 126.04 204.295C125.824 204.251 125.633 204.126 125.506 203.946C125.38 203.765 125.327 203.543 125.36 203.325L130.36 145.43C130.535 143.405 131.98 141.88 133.725 141.88H157.345C159.09 141.88 160.535 143.405 160.71 145.43L165.71 203.325C165.743 203.543 165.69 203.765 165.564 203.946C165.437 204.126 165.246 204.251 165.03 204.295V204.27Z" fill="black"/>
</g>
<path d="M164.7 139.375H100.495C99.9349 139.375 99.4805 139.829 99.4805 140.39V143.68C99.4805 144.241 99.9349 144.695 100.495 144.695H164.7C165.261 144.695 165.715 144.241 165.715 143.68V140.39C165.715 139.829 165.261 139.375 164.7 139.375Z" fill="#263238"/>
<path opacity="0.2" d="M136.65 139.375H164.7C164.966 139.375 165.22 139.48 165.408 139.668C165.595 139.855 165.7 140.11 165.7 140.375V143.665C165.7 143.93 165.595 144.185 165.408 144.372C165.22 144.56 164.966 144.665 164.7 144.665H136.65V139.375Z" fill="white"/>
<path d="M139.16 204.27C139.053 204.275 138.945 204.258 138.844 204.22C138.744 204.182 138.651 204.124 138.573 204.05C138.495 203.976 138.433 203.887 138.391 203.788C138.348 203.689 138.326 203.583 138.325 203.475L133.325 145.585C133.316 145.086 133.121 144.608 132.778 144.245C132.435 143.882 131.968 143.661 131.47 143.625H107.85C107.353 143.662 106.888 143.884 106.545 144.247C106.203 144.609 106.009 145.086 106 145.585L101 203.5C101 203.607 100.977 203.713 100.935 203.812C100.893 203.91 100.831 203.999 100.753 204.073C100.676 204.147 100.585 204.205 100.484 204.243C100.384 204.281 100.277 204.299 100.17 204.295C99.9508 204.249 99.7581 204.119 99.633 203.934C99.5079 203.748 99.4602 203.52 99.5001 203.3L104.5 145.405C104.675 143.38 106.125 141.855 107.865 141.855H131.485C133.23 141.855 134.675 143.38 134.85 145.405L139.85 203.3C139.883 203.517 139.831 203.739 139.706 203.919C139.58 204.1 139.39 204.225 139.175 204.27H139.16Z" fill="#027471"/>
<g opacity="0.4">
<path d="M139.16 204.27C139.053 204.275 138.945 204.258 138.844 204.22C138.744 204.182 138.651 204.124 138.573 204.05C138.495 203.976 138.433 203.887 138.391 203.788C138.348 203.689 138.326 203.583 138.325 203.475L133.325 145.585C133.316 145.086 133.121 144.608 132.778 144.245C132.435 143.882 131.968 143.661 131.47 143.625H107.85C107.353 143.662 106.888 143.884 106.545 144.247C106.203 144.609 106.009 145.086 106 145.585L101 203.5C101 203.607 100.977 203.713 100.935 203.812C100.893 203.91 100.831 203.999 100.753 204.073C100.676 204.147 100.585 204.205 100.484 204.243C100.384 204.281 100.277 204.299 100.17 204.295C99.9508 204.249 99.7581 204.119 99.633 203.934C99.5079 203.748 99.4602 203.52 99.5001 203.3L104.5 145.405C104.675 143.38 106.125 141.855 107.865 141.855H131.485C133.23 141.855 134.675 143.38 134.85 145.405L139.85 203.3C139.883 203.517 139.831 203.739 139.706 203.919C139.58 204.1 139.39 204.225 139.175 204.27H139.16Z" fill="black"/>
</g>
<path d="M120.665 136.755H139.195V138.5C139.195 138.732 139.103 138.954 138.939 139.119C138.775 139.283 138.552 139.375 138.32 139.375H121.54C121.308 139.375 121.085 139.283 120.921 139.119C120.757 138.954 120.665 138.732 120.665 138.5V136.765V136.755Z" fill="#263238"/>
<path opacity="0.2" d="M120.665 136.755H139.195V138.5C139.195 138.732 139.103 138.954 138.939 139.119C138.775 139.283 138.552 139.375 138.32 139.375H121.54C121.308 139.375 121.085 139.283 120.921 139.119C120.757 138.954 120.665 138.732 120.665 138.5V136.765V136.755Z" fill="white"/>
<path d="M107.561 136.755H126.091V138.5C126.091 138.732 125.998 138.954 125.834 139.119C125.67 139.283 125.448 139.375 125.216 139.375H108.436C108.203 139.375 107.981 139.283 107.817 139.119C107.653 138.954 107.561 138.732 107.561 138.5V136.765V136.755Z" fill="#263238"/>
<path opacity="0.6" d="M107.561 136.755H126.091V138.5C126.091 138.732 125.998 138.954 125.834 139.119C125.67 139.283 125.448 139.375 125.216 139.375H108.436C108.203 139.375 107.981 139.283 107.817 139.119C107.653 138.954 107.561 138.732 107.561 138.5V136.765V136.755Z" fill="white"/>
<path d="M123.946 137.75H122.226V138.37H123.946V137.75Z" fill="#263238"/>
<path d="M121.191 137.75H119.471V138.37H121.191V137.75Z" fill="#263238"/>
<path d="M140.5 139.375H141.385C141.627 139.37 141.86 139.28 142.043 139.121C142.226 138.962 142.347 138.744 142.385 138.505L145.385 120.06C145.409 119.914 145.401 119.764 145.362 119.621C145.323 119.478 145.254 119.345 145.159 119.231C145.064 119.116 144.946 119.024 144.813 118.959C144.679 118.894 144.534 118.859 144.385 118.855L130 118.83L126.11 139.33H126.995L140.5 139.375Z" fill="#263238"/>
<path opacity="0.6" d="M140.5 139.375H141.385C141.627 139.37 141.86 139.28 142.043 139.121C142.226 138.962 142.347 138.744 142.385 138.505L145.385 120.06C145.409 119.914 145.401 119.764 145.362 119.621C145.323 119.478 145.254 119.345 145.159 119.231C145.064 119.116 144.946 119.024 144.813 118.959C144.679 118.894 144.534 118.859 144.385 118.855L130 118.83L126.11 139.33H126.995L140.5 139.375Z" fill="white"/>
<path opacity="0.2" d="M126.336 138.04L126.086 139.35H126.971L140.471 139.375H141.356C141.598 139.37 141.831 139.28 142.013 139.121C142.196 138.962 142.317 138.744 142.356 138.505L142.426 138.07L126.336 138.04Z" fill="black"/>
<path d="M126.105 139.365H127C127.243 139.36 127.475 139.27 127.658 139.111C127.841 138.952 127.962 138.734 128 138.495L131 120.04C131.024 119.894 131.016 119.744 130.977 119.601C130.938 119.459 130.869 119.326 130.774 119.212C130.679 119.098 130.561 119.006 130.428 118.942C130.294 118.878 130.148 118.843 130 118.84L126.105 139.365Z" fill="#263238"/>
<path opacity="0.3" d="M126.105 139.365H127C127.243 139.36 127.475 139.27 127.658 139.111C127.841 138.952 127.962 138.734 128 138.495L131 120.04C131.024 119.894 131.016 119.744 130.977 119.601C130.938 119.459 130.869 119.326 130.774 119.212C130.679 119.098 130.561 119.006 130.428 118.942C130.294 118.878 130.148 118.843 130 118.84L126.105 139.365Z" fill="white"/>
</svg>
