<svg width="250" height="250" viewBox="0 0 250 250" fill="none" xmlns="http://www.w3.org/2000/svg">
<path d="M250 191.2H0V191.325H250V191.2Z" fill="#EBEBEB"/>
<path d="M224.95 199.245H208.39V199.37H224.95V199.245Z" fill="#EBEBEB"/>
<path d="M165.61 200.605H161.265V200.73H165.61V200.605Z" fill="#EBEBEB"/>
<path d="M207.89 194.605H198.295V194.73H207.89V194.605Z" fill="#EBEBEB"/>
<path d="M47.8255 195.445H26.2305V195.57H47.8255V195.445Z" fill="#EBEBEB"/>
<path d="M55.4453 195.445H52.2803V195.57H55.4453V195.445Z" fill="#EBEBEB"/>
<path d="M112.575 197.555H65.7354V197.68H112.575V197.555Z" fill="#EBEBEB"/>
<path d="M118.5 168.9H21.9555C21.1991 168.899 20.4742 168.597 19.9399 168.062C19.4056 167.527 19.1055 166.801 19.1055 166.045V30.33C19.1121 29.578 19.4151 28.859 19.9487 28.3291C20.4823 27.7992 21.2035 27.5013 21.9555 27.5H118.5C119.258 27.5 119.984 27.8008 120.519 28.3362C121.055 28.8716 121.355 29.5978 121.355 30.355V166.045C121.355 166.802 121.055 167.528 120.519 168.064C119.984 168.599 119.258 168.9 118.5 168.9ZM21.9555 27.6C21.2323 27.6013 20.5392 27.8895 20.0283 28.4014C19.5174 28.9132 19.2305 29.6068 19.2305 30.33V166.045C19.2305 166.768 19.5174 167.462 20.0283 167.974C20.5392 168.485 21.2323 168.774 21.9555 168.775H118.5C119.224 168.774 119.918 168.486 120.429 167.974C120.941 167.462 121.229 166.769 121.23 166.045V30.33C121.229 29.6064 120.941 28.9127 120.429 28.4011C119.918 27.8894 119.224 27.6013 118.5 27.6H21.9555Z" fill="#EBEBEB"/>
<path d="M226.655 168.9H130.105C129.348 168.899 128.623 168.597 128.088 168.062C127.553 167.527 127.251 166.802 127.25 166.045V30.33C127.258 29.5776 127.562 28.8585 128.096 28.3288C128.631 27.7991 129.353 27.5013 130.105 27.5H226.655C227.406 27.5026 228.126 27.8011 228.659 28.3309C229.191 28.8606 229.493 29.5789 229.5 30.33V166.045C229.5 166.8 229.201 167.525 228.667 168.06C228.134 168.595 227.41 168.897 226.655 168.9ZM130.105 27.6C129.381 27.6013 128.688 27.8894 128.176 28.4011C127.664 28.9127 127.376 29.6064 127.375 30.33V166.045C127.376 166.769 127.664 167.462 128.176 167.974C128.688 168.486 129.381 168.774 130.105 168.775H226.655C227.379 168.774 228.072 168.486 228.584 167.974C229.096 167.462 229.384 166.769 229.385 166.045V30.33C229.384 29.6064 229.096 28.9127 228.584 28.4011C228.072 27.8894 227.379 27.6013 226.655 27.6H130.105Z" fill="#EBEBEB"/>
<path d="M210.26 41.21H97.1445V106.1H210.26V41.21Z" fill="#E6E6E6"/>
<path d="M213.285 41.21H98.5596V106.1H213.285V41.21Z" fill="#F0F0F0"/>
<path d="M210.26 106.1H97.1445V111.72H210.26V106.1Z" fill="#E6E6E6"/>
<path d="M218.32 106.1H103.595V111.72H218.32V106.1Z" fill="#F0F0F0"/>
<path d="M209.05 101.865V45.4399L102.79 45.4399V101.865H209.05Z" fill="#FAFAFA"/>
<path d="M110.6 101.865L135.44 45.4399H147.17L122.325 101.865H110.6Z" fill="white"/>
<path d="M104.75 97.6552C104.67 97.6539 104.594 97.6212 104.538 97.5641C104.482 97.5071 104.45 97.4303 104.45 97.3502V48.1952C104.46 48.1217 104.496 48.0541 104.551 48.0052C104.607 47.9562 104.679 47.9292 104.753 47.9292C104.827 47.9292 104.898 47.9562 104.954 48.0052C105.01 48.0541 105.046 48.1217 105.055 48.1952V97.3502C105.055 97.3903 105.047 97.4299 105.032 97.4669C105.017 97.504 104.994 97.5376 104.966 97.5659C104.938 97.5942 104.904 97.6167 104.867 97.632C104.83 97.6473 104.79 97.6552 104.75 97.6552Z" fill="#F0F0F0"/>
<path d="M124.845 101.865L149.69 45.4399H154.26L129.415 101.865H124.845Z" fill="white"/>
<path d="M209.05 101.865V45.4399H208.515V101.865H209.05Z" fill="#E6E6E6"/>
<path opacity="0.6" d="M214.285 51.825H101.17L100.78 47.085H213.895L214.285 51.825Z" fill="#EBEBEB"/>
<path opacity="0.6" d="M214.285 59.59H101.17L100.78 54.855H213.895L214.285 59.59Z" fill="#EBEBEB"/>
<path opacity="0.6" d="M214.285 67.36H101.17L100.78 62.625H213.895L214.285 67.36Z" fill="#EBEBEB"/>
<path opacity="0.6" d="M214.285 75.1301H101.17L100.78 70.3901H213.895L214.285 75.1301Z" fill="#EBEBEB"/>
<path opacity="0.6" d="M214.285 82.9002H101.17L100.78 78.1602H213.895L214.285 82.9002Z" fill="#EBEBEB"/>
<path opacity="0.6" d="M214.285 90.6652H101.17L100.78 85.9302H213.895L214.285 90.6652Z" fill="#EBEBEB"/>
<path d="M71.0654 59.6548H32.2754V111.715H71.0654V59.6548Z" fill="#E6E6E6"/>
<path d="M73.7703 59.6548H32.8604V111.715H73.7703V59.6548Z" fill="#F0F0F0"/>
<path d="M70.3398 108.285V63.0801H36.2849V108.285H70.3398Z" fill="white"/>
<path d="M53.0804 97.64L46.8304 91.39C45.3206 89.8763 44.4727 87.8256 44.4727 85.6875C44.4727 83.5495 45.3206 81.4988 46.8304 79.985L53.0804 73.73C53.1428 73.6699 53.2262 73.6362 53.3129 73.6362C53.3996 73.6362 53.483 73.6699 53.5454 73.73L59.8004 80C61.3102 81.5138 62.1581 83.5645 62.1581 85.7025C62.1581 87.8406 61.3102 89.8913 59.8004 91.405L53.5454 97.655C53.5141 97.6851 53.4772 97.7086 53.4367 97.7241C53.3962 97.7396 53.3531 97.7469 53.3097 97.7455C53.2664 97.7441 53.2238 97.7341 53.1844 97.716C53.145 97.6978 53.1097 97.672 53.0804 97.64ZM53.3154 74.43L47.3154 80.43C45.9295 81.8208 45.1513 83.7042 45.1513 85.6675C45.1513 87.6309 45.9295 89.5143 47.3154 90.905L53.3154 96.905L59.3154 90.905C60.7037 89.5156 61.4836 87.6317 61.4836 85.6675C61.4836 83.7034 60.7037 81.8195 59.3154 80.43L53.3154 74.43Z" fill="#F0F0F0"/>
<path d="M111.67 137.635C111.415 137.635 111.17 137.635 110.895 137.66C105.395 138.1 100.985 143.32 100.635 149.75C100.557 151.177 100.68 152.607 101 154C102.21 159.545 102.792 165.209 102.735 170.885V187.47C102.735 188.67 103.565 189.645 104.59 189.645H141.19V137.645L111.67 137.635Z" fill="#F0F0F0"/>
<path d="M152.24 150.6C152.24 143.14 146.865 137.15 140.405 137.665C134.905 138.105 130.49 143.325 130.145 149.755C130.061 151.18 130.181 152.609 130.5 154C131.71 159.546 132.292 165.21 132.235 170.885V187.47C132.235 188.67 133.065 189.645 134.09 189.645H148.27C149.27 189.645 150.125 188.67 150.125 187.47V169.89C150.084 164.567 150.659 159.256 151.84 154.065C152.107 152.929 152.241 151.767 152.24 150.6Z" fill="#FAFAFA"/>
<path d="M125.94 160.225H87.3154V189.62H125.94V160.225Z" fill="#F5F5F5"/>
<path d="M63.065 125H105.5C107.904 125 110.21 125.955 111.91 127.655C113.61 129.355 114.565 131.661 114.565 134.065V165.195H54V134.065C54 131.661 54.9551 129.355 56.6551 127.655C58.3551 125.955 60.6608 125 63.065 125Z" fill="#E6E6E6"/>
<path d="M69.6597 125H107.875C109.048 125 110.21 125.231 111.294 125.68C112.378 126.129 113.363 126.787 114.193 127.617C115.022 128.447 115.681 129.432 116.13 130.516C116.579 131.6 116.81 132.762 116.81 133.935V165.195H60.7197V133.935C60.7197 132.761 60.951 131.599 61.4003 130.515C61.8497 129.43 62.5083 128.445 63.3385 127.615C64.1687 126.785 65.1543 126.127 66.2389 125.679C67.3235 125.23 68.4859 124.999 69.6597 125Z" fill="#F5F5F5"/>
<path d="M89.8046 159.165H125.905C126.42 159.165 126.915 159.37 127.28 159.735C127.645 160.099 127.85 160.594 127.85 161.11V164.24C127.85 164.756 127.645 165.251 127.28 165.615C126.915 165.98 126.42 166.185 125.905 166.185H89.8046C89.6508 166.185 89.5033 166.124 89.3945 166.015C89.2857 165.906 89.2246 165.759 89.2246 165.605V159.745C89.2246 159.591 89.2857 159.444 89.3945 159.335C89.5033 159.226 89.6508 159.165 89.8046 159.165Z" fill="#EBEBEB"/>
<path d="M49.4698 189.62H141.735V189.74C141.735 190.127 141.581 190.499 141.307 190.772C141.033 191.046 140.662 191.2 140.275 191.2H50.9248C50.5376 191.2 50.1663 191.046 49.8925 190.772C49.6187 190.499 49.4648 190.127 49.4648 189.74V189.62H49.4698Z" fill="#E6E6E6"/>
<path d="M50.0254 137.635C49.7704 137.635 49.5254 137.635 49.2504 137.66C43.7504 138.1 39.3354 143.32 38.9904 149.75C38.9115 151.167 39.0309 152.587 39.3454 153.97C40.5552 159.516 41.1372 165.18 41.0804 170.855V187.44C41.0804 188.64 41.9104 189.615 42.9354 189.615H87.8404V137.615L50.0254 137.635Z" fill="#F0F0F0"/>
<path d="M98.8998 150.6C98.8998 143.14 93.5248 137.15 87.0648 137.665C81.5648 138.105 77.1548 143.325 76.8048 149.755C76.7259 151.172 76.8454 152.592 77.1598 153.975C78.3697 159.521 78.9516 165.185 78.8948 170.86V187.445C78.8948 188.645 79.7248 189.62 80.7498 189.62H94.9298C95.9298 189.62 96.7898 188.645 96.7898 187.445V169.89C96.747 164.567 97.3208 159.256 98.4998 154.065C98.7664 152.929 98.9006 151.767 98.8998 150.6Z" fill="#FAFAFA"/>
<path d="M200.71 142.04C201.143 142.042 201.568 141.915 201.93 141.676C202.292 141.437 202.576 141.097 202.746 140.698C202.916 140.299 202.964 139.858 202.884 139.432C202.805 139.005 202.602 138.612 202.3 138.3C201.3 137.27 199.66 136.43 197.05 136.43C194.44 136.43 192.82 137.27 191.805 138.3C191.503 138.611 191.3 139.004 191.22 139.43C191.141 139.857 191.188 140.297 191.357 140.696C191.527 141.095 191.809 141.435 192.171 141.674C192.532 141.913 192.956 142.041 193.39 142.04H200.71Z" fill="#F5F5F5"/>
<path d="M208.055 141.22C208.332 141.217 208.602 141.133 208.831 140.978C209.06 140.823 209.239 140.605 209.346 140.349C209.452 140.094 209.481 139.813 209.43 139.541C209.378 139.269 209.248 139.019 209.055 138.82C208.405 138.155 207.36 137.62 205.685 137.62C204.01 137.62 202.965 138.155 202.315 138.82C202.123 139.019 201.992 139.269 201.941 139.541C201.889 139.813 201.918 140.094 202.025 140.349C202.131 140.605 202.31 140.823 202.54 140.978C202.769 141.133 203.039 141.217 203.315 141.22H208.055Z" fill="#F5F5F5"/>
<path d="M189.5 140.585C189.5 140.585 189.785 143.5 200.74 143.5C211.695 143.5 211.985 140.585 211.985 140.585H189.5Z" fill="#F0F0F0"/>
<path d="M177.88 135.68C177.786 135.683 177.693 135.693 177.6 135.71V134.71C177.601 134.606 177.581 134.503 177.542 134.406C177.502 134.31 177.444 134.222 177.371 134.148C177.297 134.074 177.21 134.016 177.114 133.976C177.018 133.936 176.915 133.915 176.81 133.915H172.565C172.355 133.916 172.154 134.001 172.006 134.15C171.858 134.299 171.775 134.5 171.775 134.71V143.5H177.6V142.08C177.693 142.095 177.787 142.105 177.88 142.11C178.499 142.109 179.092 141.862 179.53 141.425C179.968 140.987 180.214 140.394 180.215 139.775V138C180.21 137.384 179.962 136.794 179.525 136.36C179.088 135.926 178.497 135.681 177.88 135.68ZM179.215 139.775C179.214 140.129 179.073 140.467 178.823 140.718C178.573 140.968 178.234 141.109 177.88 141.11C177.786 141.11 177.692 141.1 177.6 141.08V136.71C177.692 136.69 177.786 136.68 177.88 136.68C178.234 136.681 178.573 136.822 178.823 137.073C179.073 137.323 179.214 137.661 179.215 138.015V139.775Z" fill="#E6E6E6"/>
<path d="M182.67 143.5H160.96V191.2H182.67V143.5Z" fill="#E6E6E6"/>
<path d="M182.665 191.2H220.855V143.5H182.665V191.2Z" fill="#F5F5F5"/>
<path d="M218.855 191.2V145.5H184.665V191.2H218.855Z" fill="#E6E6E6"/>
<path d="M193.3 191.2V145.5H184.67V191.2H193.3Z" fill="#E0E0E0"/>
<path d="M219.94 169.35V167.35H184.67V169.35H219.94Z" fill="#F5F5F5"/>
<path d="M196.165 167.35H188.665L190.89 150.92H196.165V167.35Z" fill="#E6E6E6"/>
<path d="M207.165 167.35H192.96L190.315 148.12H204.52L207.165 167.35Z" fill="#F0F0F0"/>
<path d="M209.065 167.35H194.28L191.635 148.12H206.42L209.065 167.35Z" fill="#F5F5F5"/>
<path d="M195.585 165.835L193.36 149.635H205.11L207.34 165.835H195.585Z" fill="white"/>
<path d="M198.5 160.62L197.76 155.255C197.732 155.042 197.75 154.826 197.813 154.621C197.876 154.416 197.982 154.227 198.124 154.066C198.266 153.905 198.441 153.777 198.637 153.69C198.833 153.603 199.045 153.558 199.26 153.56H200.7C201.064 153.557 201.417 153.685 201.693 153.923C201.969 154.16 202.149 154.49 202.2 154.85L202.935 160.21C202.963 160.423 202.946 160.64 202.884 160.846C202.821 161.051 202.715 161.241 202.573 161.403C202.431 161.564 202.255 161.693 202.059 161.78C201.863 161.868 201.65 161.912 201.435 161.91H200C199.636 161.914 199.283 161.785 199.007 161.547C198.731 161.31 198.551 160.981 198.5 160.62Z" fill="#F5F5F5"/>
<path d="M125 213.78C178.541 213.78 221.945 211.246 221.945 208.12C221.945 204.994 178.541 202.46 125 202.46C71.4584 202.46 28.0547 204.994 28.0547 208.12C28.0547 211.246 71.4584 213.78 125 213.78Z" fill="#F5F5F5"/>
<path d="M81.6566 100.303C83.733 87.5114 75.0464 75.4582 62.2545 73.3818C49.4625 71.3054 37.4094 79.992 35.3329 92.784C33.2565 105.576 41.9432 117.629 54.7351 119.705C67.527 121.782 79.5802 113.095 81.6566 100.303Z" fill="#027471"/>
<path opacity="0.7" d="M81.6566 100.303C83.733 87.5114 75.0464 75.4582 62.2545 73.3818C49.4625 71.3054 37.4094 79.992 35.3329 92.784C33.2565 105.576 41.9432 117.629 54.7351 119.705C67.527 121.782 79.5802 113.095 81.6566 100.303Z" fill="#FAFAFA"/>
<path d="M45.8052 96.1451C45.8052 93.1951 46.3368 91.1301 47.4002 89.9501C48.4635 88.7701 50.0818 88.1801 52.2552 88.1801C53.1296 88.1538 54.0017 88.2842 54.8302 88.5651C55.4403 88.7841 55.9998 89.1243 56.4752 89.5651C56.8725 89.9452 57.2097 90.3835 57.4752 90.8651C57.7357 91.3703 57.9322 91.9061 58.0602 92.4601C58.3535 93.6459 58.4996 94.8634 58.4952 96.0851C58.4952 98.8984 58.0185 100.96 57.0652 102.27C56.1118 103.58 54.4702 104.233 52.1402 104.23C51.0488 104.277 49.9622 104.062 48.9702 103.605C48.1508 103.186 47.4597 102.554 46.9702 101.775C46.5383 101.051 46.2418 100.255 46.0952 99.4251C45.8876 98.3444 45.7905 97.2454 45.8052 96.1451ZM50.0852 96.1451C50.0852 98.1217 50.2518 99.4717 50.5852 100.195C50.6974 100.506 50.9005 100.775 51.168 100.969C51.4356 101.162 51.7551 101.271 52.0852 101.28C52.5109 101.283 52.9207 101.118 53.2252 100.82C53.5954 100.412 53.8417 99.9077 53.9352 99.3651C54.1144 98.3403 54.1898 97.3 54.1602 96.2601C54.1602 94.1934 53.9935 92.8067 53.6602 92.1001C53.5362 91.785 53.32 91.5148 53.0399 91.3247C52.7597 91.1347 52.4287 91.0337 52.0902 91.0351C51.7497 91.0295 51.4163 91.132 51.1378 91.3279C50.8593 91.5237 50.6501 91.8028 50.5402 92.1251C50.2368 92.8551 50.0852 94.2001 50.0852 96.1601V96.1451Z" fill="#FAFAFA"/>
<path d="M70.0556 88.1802V104H65.6906V93.6502C65.0488 94.1471 64.3625 94.584 63.6406 94.9552C62.8355 95.3415 61.9992 95.6593 61.1406 95.9052V92.3702C62.3748 92.0145 63.5337 91.4367 64.5606 90.6652C65.3749 90 66.028 89.1589 66.4706 88.2052L70.0556 88.1802Z" fill="#FAFAFA"/>
<path d="M128.253 101.925C131.23 89.3124 123.418 76.6744 110.805 73.6975C98.1925 70.7206 85.5545 78.5321 82.5776 91.1449C79.6007 103.758 87.4122 116.396 100.025 119.373C112.638 122.349 125.276 114.538 128.253 101.925Z" fill="#027471"/>
<path opacity="0.7" d="M128.253 101.925C131.23 89.3124 123.418 76.6744 110.805 73.6975C98.1925 70.7206 85.5545 78.5321 82.5776 91.1449C79.6007 103.758 87.4122 116.396 100.025 119.373C112.638 122.349 125.276 114.538 128.253 101.925Z" fill="#FAFAFA"/>
<path d="M91.7655 96.1451C91.7655 93.1951 92.2971 91.1301 93.3605 89.9501C94.4238 88.7701 96.0421 88.1801 98.2155 88.1801C99.0899 88.1538 99.962 88.2842 100.79 88.5651C101.4 88.783 101.958 89.1233 102.43 89.5651C102.829 89.9441 103.166 90.3826 103.43 90.8651C103.691 91.3703 103.888 91.9061 104.015 92.4601C104.309 93.6459 104.455 94.8634 104.45 96.0851C104.45 98.8984 103.974 100.96 103.02 102.27C102.067 103.58 100.425 104.233 98.0955 104.23C97.0041 104.277 95.9173 104.063 94.9255 103.605C94.1061 103.186 93.415 102.554 92.9255 101.775C92.4936 101.051 92.1971 100.255 92.0505 99.4251C91.8446 98.3442 91.7491 97.2452 91.7655 96.1451ZM96.0455 96.1451C96.0455 98.1217 96.2121 99.4717 96.5455 100.195C96.6577 100.506 96.8608 100.775 97.1284 100.969C97.3959 101.162 97.7154 101.271 98.0455 101.28C98.2556 101.282 98.4641 101.242 98.6589 101.163C98.8537 101.084 99.0309 100.968 99.1805 100.82C99.5545 100.415 99.8014 99.9091 99.8905 99.3651C100.075 98.3408 100.152 97.3002 100.12 96.2601C100.12 94.1934 99.9455 92.8067 99.5955 92.1001C99.4712 91.7842 99.2543 91.5134 98.9731 91.3233C98.692 91.1332 98.3598 91.0327 98.0205 91.0351C97.6809 91.0306 97.3486 91.1336 97.0711 91.3294C96.7936 91.5251 96.5851 91.8036 96.4755 92.1251C96.2005 92.8601 96.0455 94.2001 96.0455 96.1601V96.1451Z" fill="#FAFAFA"/>
<path d="M118.865 104H105.915C106.07 102.707 106.535 101.47 107.27 100.395C108.02 99.2714 109.43 97.9381 111.5 96.3947C112.398 95.7904 113.214 95.071 113.925 94.2547C114.245 93.8613 114.43 93.3761 114.455 92.8697C114.461 92.6435 114.42 92.4185 114.334 92.2093C114.248 92 114.119 91.8111 113.955 91.6547C113.588 91.3258 113.113 91.1439 112.62 91.1439C112.127 91.1439 111.652 91.3258 111.285 91.6547C110.865 92.178 110.618 92.8195 110.58 93.4897L106.26 93.1397C106.358 92.1339 106.677 91.1623 107.195 90.2947C107.665 89.5965 108.329 89.0508 109.105 88.7247C110.195 88.3165 111.357 88.1312 112.52 88.1797C113.723 88.1242 114.925 88.2938 116.065 88.6797C116.879 88.9939 117.578 89.5507 118.065 90.2747C118.548 90.9849 118.801 91.8261 118.79 92.6847C118.785 93.6499 118.497 94.5924 117.96 95.3947C117.143 96.5178 116.126 97.4806 114.96 98.2347C114.09 98.8347 113.51 99.2547 113.22 99.4947C112.93 99.7347 112.585 100.05 112.185 100.44H118.925L118.865 104Z" fill="#FAFAFA"/>
<path d="M151.9 106.328C164.843 105.677 174.807 94.6566 174.156 81.7136C173.505 68.7706 162.485 58.8061 149.542 59.4572C136.599 60.1084 126.634 71.1286 127.285 84.0716C127.937 97.0146 138.957 106.979 151.9 106.328Z" fill="#027471"/>
<path opacity="0.7" d="M151.9 106.328C164.843 105.677 174.807 94.6566 174.156 81.7136C173.505 68.7706 162.485 58.8061 149.542 59.4572C136.599 60.1084 126.634 71.1286 127.285 84.0716C127.937 97.0146 138.957 106.979 151.9 106.328Z" fill="#FAFAFA"/>
<path d="M138.735 87.4099C137.612 84.6799 137.317 82.5682 137.85 81.0749C138.384 79.5816 139.655 78.4149 141.665 77.5749C142.464 77.2176 143.322 77.0076 144.195 76.9549C144.843 76.9228 145.49 77.0267 146.095 77.2599C146.608 77.4586 147.087 77.7352 147.515 78.0799C147.951 78.4471 148.339 78.867 148.67 79.3299C149.392 80.3148 149.989 81.3844 150.45 82.5149C151.527 85.1182 151.872 87.2066 151.485 88.7799C151.099 90.3532 149.83 91.5932 147.68 92.4999C146.687 92.9543 145.602 93.1701 144.51 93.1299C143.599 93.0452 142.726 92.7209 141.98 92.1899C141.308 91.6853 140.732 91.0637 140.28 90.3549C139.666 89.4283 139.149 88.4416 138.735 87.4099ZM142.7 85.7899C143.45 87.6199 144.13 88.7899 144.725 89.3349C144.95 89.5815 145.244 89.7541 145.569 89.8299C145.894 89.9058 146.235 89.8814 146.545 89.7599C146.742 89.682 146.921 89.5658 147.072 89.4182C147.223 89.2705 147.343 89.0944 147.425 88.8999C147.615 88.3828 147.65 87.8215 147.525 87.2849C147.305 86.2673 146.98 85.2753 146.555 84.3249C145.765 82.4182 145.075 81.2032 144.485 80.6799C144.25 80.4358 143.946 80.2688 143.614 80.201C143.282 80.1331 142.937 80.1676 142.625 80.2999C142.313 80.4263 142.048 80.6479 141.868 80.9333C141.689 81.2187 141.604 81.5534 141.625 81.8899C141.599 82.6799 141.957 83.9799 142.7 85.7899Z" fill="#FAFAFA"/>
<path d="M154.76 77.3347L150.71 78.2097C150.509 77.0005 150.747 75.7591 151.38 74.7097C152.01 73.7097 153.14 72.8764 154.77 72.2097C156.645 71.4347 158.145 71.2097 159.27 71.5797C159.797 71.7289 160.283 71.9979 160.689 72.3657C161.095 72.7334 161.41 73.1899 161.61 73.6997C161.867 74.2968 161.932 74.9592 161.795 75.5947C161.623 76.3169 161.28 76.9873 160.795 77.5497C161.28 77.4623 161.776 77.4472 162.265 77.5047C162.848 77.5947 163.397 77.838 163.855 78.2097C164.352 78.624 164.732 79.1597 164.96 79.7647C165.306 80.6112 165.422 81.5341 165.295 82.4397C165.175 83.3873 164.771 84.2763 164.135 84.9897C163.301 85.8666 162.274 86.5375 161.135 86.9497C160.102 87.423 158.99 87.6978 157.855 87.7597C157.015 87.7741 156.184 87.5763 155.44 87.1847C154.648 86.7385 153.954 86.1364 153.4 85.4147L157.17 83.2447C157.494 83.8328 157.987 84.3101 158.585 84.6147C159.057 84.7884 159.578 84.7686 160.035 84.5597C160.29 84.4612 160.52 84.308 160.709 84.1111C160.898 83.9141 161.042 83.6781 161.13 83.4197C161.324 82.8326 161.285 82.1936 161.02 81.6347C160.823 81.057 160.409 80.5785 159.865 80.2997C159.611 80.1849 159.335 80.1255 159.055 80.1255C158.776 80.1255 158.5 80.1849 158.245 80.2997C157.815 80.5027 157.413 80.7616 157.05 81.0697L156.08 78.1347C156.264 78.0908 156.444 78.0357 156.62 77.9697C157.109 77.7806 157.504 77.4071 157.72 76.9297C157.826 76.7124 157.884 76.475 157.89 76.2335C157.896 75.992 157.85 75.752 157.755 75.5297C157.687 75.3335 157.579 75.1535 157.438 75.0011C157.297 74.8488 157.126 74.7274 156.935 74.6447C156.736 74.568 156.523 74.5329 156.31 74.5415C156.097 74.5501 155.888 74.6023 155.695 74.6947C155.482 74.7728 155.286 74.8925 155.12 75.0471C154.953 75.2016 154.819 75.3878 154.725 75.5947C154.552 76.1636 154.564 76.7732 154.76 77.3347Z" fill="#FAFAFA"/>
<path d="M222.107 101.93C225.084 89.3173 217.273 76.6793 204.66 73.7024C192.047 70.7255 179.409 78.537 176.432 91.1498C173.455 103.763 181.267 116.401 193.88 119.377C206.492 122.354 219.13 114.543 222.107 101.93Z" fill="#027471"/>
<path opacity="0.7" d="M222.107 101.93C225.084 89.3173 217.273 76.6793 204.66 73.7024C192.047 70.7255 179.409 78.537 176.432 91.1498C173.455 103.763 181.267 116.401 193.88 119.377C206.492 122.354 219.13 114.543 222.107 101.93Z" fill="#FAFAFA"/>
<path d="M185.171 96.1451C185.171 93.1951 185.703 91.1301 186.766 89.9501C187.829 88.7701 189.448 88.1801 191.621 88.1801C192.495 88.1538 193.367 88.2842 194.196 88.5651C194.805 88.783 195.363 89.1233 195.836 89.5651C196.234 89.9441 196.572 90.3826 196.836 90.8651C197.096 91.3703 197.293 91.9061 197.421 92.4601C197.714 93.6459 197.86 94.8634 197.856 96.0851C197.856 98.8984 197.379 100.96 196.426 102.27C195.473 103.58 193.831 104.237 191.501 104.24C190.41 104.287 189.323 104.073 188.331 103.615C187.511 103.196 186.82 102.564 186.331 101.785C185.899 101.061 185.603 100.265 185.456 99.4351C185.249 98.3509 185.154 97.2486 185.171 96.1451ZM189.451 96.1451C189.451 98.1217 189.626 99.4717 189.976 100.195C190.088 100.506 190.291 100.775 190.559 100.969C190.826 101.162 191.146 101.271 191.476 101.28C191.686 101.282 191.895 101.242 192.089 101.163C192.284 101.084 192.461 100.968 192.611 100.82C192.985 100.415 193.232 99.9091 193.321 99.3651C193.505 98.3408 193.582 97.3002 193.551 96.2601C193.551 94.1934 193.376 92.8067 193.026 92.1001C192.902 91.7842 192.685 91.5134 192.404 91.3233C192.122 91.1332 191.79 91.0327 191.451 91.0351C191.111 91.0306 190.779 91.1336 190.502 91.3294C190.224 91.5251 190.016 91.8036 189.906 92.1251C189.606 92.8551 189.454 94.2001 189.451 96.1601V96.1451Z" fill="#FAFAFA"/>
<path d="M207.055 101.075H199.195V97.5252L207.055 88.1802H210.815V97.7252H212.765V101.075H210.815V104H207.055V101.075ZM207.055 97.7252V92.8402L202.9 97.7252H207.055Z" fill="#FAFAFA"/>
<path d="M199.275 122.175C198.612 122.175 197.976 121.912 197.508 121.443C197.039 120.974 196.775 120.338 196.775 119.675C196.775 119.012 197.039 118.376 197.508 117.907C197.976 117.439 198.612 117.175 199.275 117.175C203.422 117.176 207.476 115.947 210.924 113.644C214.373 111.341 217.061 108.067 218.648 104.237C220.236 100.406 220.652 96.1903 219.843 92.1231C219.035 88.056 217.038 84.3199 214.107 81.3874C211.175 78.4549 207.439 76.4577 203.372 75.6483C199.305 74.839 195.09 75.2539 191.259 76.8405C187.427 78.4272 184.153 81.1143 181.849 84.5621C179.545 88.0099 178.315 92.0634 178.315 96.2101C178.315 103.096 175.58 109.701 170.71 114.57C165.841 119.44 159.237 122.175 152.35 122.175C145.464 122.175 138.86 119.44 133.99 114.57C129.121 109.701 126.385 103.096 126.385 96.2101C126.385 90.6499 124.177 85.3173 120.245 81.3856C116.313 77.4539 110.981 75.2451 105.42 75.2451C99.8601 75.2451 94.5276 77.4539 90.5959 81.3856C86.6642 85.3173 84.4554 90.6499 84.4554 96.2101C84.4554 101.346 82.9323 106.366 80.0788 110.637C77.2253 114.907 73.1695 118.235 68.4245 120.2C63.6794 122.165 58.4582 122.678 53.4212 121.675C48.3842 120.673 43.7577 118.199 40.1268 114.567C36.496 110.934 34.0238 106.307 33.0231 101.27C32.0224 96.2321 32.538 91.0111 34.5047 86.2668C36.4715 81.5225 39.8011 77.468 44.0723 74.6162C48.3435 71.7643 53.3646 70.2432 58.5004 70.2451C59.1634 70.2451 59.7993 70.5085 60.2682 70.9774C60.737 71.4462 61.0004 72.0821 61.0004 72.7451C61.0004 73.4082 60.737 74.044 60.2682 74.5129C59.7993 74.9817 59.1634 75.2451 58.5004 75.2451C54.3539 75.2451 50.3006 76.4747 46.8529 78.7784C43.4052 81.082 40.7181 84.3563 39.1313 88.1872C37.5445 92.018 37.1293 96.2334 37.9382 100.3C38.7472 104.367 40.7439 108.103 43.6759 111.035C46.6079 113.967 50.3435 115.963 54.4103 116.772C58.4771 117.581 62.6925 117.166 66.5234 115.579C70.3542 113.992 73.6285 111.305 75.9322 107.858C78.2358 104.41 79.4654 100.357 79.4654 96.2101C79.4654 89.3238 82.201 82.7195 87.0704 77.8501C91.9398 72.9807 98.5441 70.2451 105.43 70.2451C112.317 70.2451 118.921 72.9807 123.79 77.8501C128.66 82.7195 131.395 89.3238 131.395 96.2101C131.395 98.9633 131.938 101.689 132.991 104.233C134.045 106.777 135.589 109.088 137.536 111.035C139.483 112.981 141.794 114.526 144.337 115.579C146.881 116.633 149.607 117.175 152.36 117.175C155.114 117.175 157.84 116.633 160.383 115.579C162.927 114.526 165.238 112.981 167.185 111.035C169.132 109.088 170.676 106.777 171.73 104.233C172.783 101.689 173.325 98.9633 173.325 96.2101C173.325 91.0745 174.848 86.0543 177.702 81.7842C180.555 77.5142 184.61 74.1862 189.355 72.2211C194.1 70.256 199.321 69.7421 204.358 70.7444C209.395 71.7467 214.021 74.2201 217.652 77.8519C221.283 81.4836 223.756 86.1106 224.757 91.1477C225.758 96.1847 225.243 101.406 223.277 106.15C221.311 110.894 217.983 114.949 213.712 117.802C209.442 120.654 204.421 122.176 199.285 122.175H199.275Z" fill="#027471"/>
<path d="M173.885 113.635L173.5 113.32C174.639 111.912 175.635 110.395 176.475 108.79L176.92 109.025C176.061 110.657 175.044 112.201 173.885 113.635Z" fill="#027471"/>
<path d="M162.585 121.965L162.4 121.5C165.545 120.247 168.428 118.417 170.9 116.105L171.24 116.47C168.723 118.825 165.787 120.688 162.585 121.965Z" fill="#027471"/>
<path d="M95.0898 204.37H98.7598L99.1248 195.86H95.4548L95.0898 204.37Z" fill="#FFC3BD"/>
<path opacity="0.2" d="M99.1256 195.865L98.9406 200.25H95.2656L95.4506 195.865H99.1256Z" fill="black"/>
<path d="M68.165 201.485L71.755 202.26L75.36 194.34L71.77 193.56L68.165 201.485Z" fill="#FFC3BD"/>
<path opacity="0.2" d="M71.7652 193.565L75.3602 194.34L73.5002 198.425L69.9102 197.65L71.7652 193.565Z" fill="black"/>
<path d="M87.2347 84.6253C85.9747 86.8403 84.7047 89.1253 83.4897 91.4003C82.2747 93.6753 81.0847 95.9653 80.0747 98.2453C79.8097 98.8203 79.5747 99.3852 79.3547 99.9502C79.3547 99.9502 79.3547 99.9853 79.3547 100.025C79.3365 100.17 79.3365 100.316 79.3547 100.46C79.4459 100.934 79.5954 101.394 79.7997 101.83C80.0318 102.356 80.2921 102.868 80.5797 103.365C81.8801 105.521 83.3251 107.585 84.9047 109.545L83.0147 111.545C80.776 109.896 78.7594 107.965 77.0147 105.8C76.0004 104.576 75.2161 103.179 74.6997 101.675C74.5458 101.188 74.4518 100.685 74.4197 100.175C74.3926 99.8725 74.3926 99.568 74.4197 99.2653C74.4366 99.0972 74.4633 98.9302 74.4997 98.7653C74.4997 98.6853 74.5397 98.6003 74.5597 98.5153L74.6247 98.3003C74.8447 97.6303 75.0597 96.9503 75.3047 96.3003C76.2638 93.7534 77.3587 91.2599 78.5847 88.8303C79.7947 86.4203 81.0597 84.0903 82.4697 81.7603L87.2347 84.6253Z" fill="#FFC3BD"/>
<path d="M84.195 108.905L86.775 109.755L84.605 113.405C84.605 113.405 82.715 112.55 82.335 110.81L84.195 108.905Z" fill="#FFC3BD"/>
<path d="M90.2905 111.165L87.7805 113.975L84.6055 113.405L86.7755 109.755L90.2905 111.165Z" fill="#FFC3BD"/>
<path d="M99.5647 64.6802C99.6247 64.9702 99.8247 65.1802 100.015 65.1352C100.205 65.0902 100.31 64.8302 100.25 64.5402C100.19 64.2502 99.9897 64.0402 99.7997 64.0852C99.6097 64.1302 99.4997 64.3902 99.5647 64.6802Z" fill="#263238"/>
<path d="M99.7998 65.1802C100.326 65.9966 100.962 66.7369 101.69 67.3802C101.52 67.5624 101.313 67.7052 101.082 67.7985C100.852 67.8918 100.603 67.9334 100.355 67.9202L99.7998 65.1802Z" fill="#ED847E"/>
<path d="M98.1749 63.2853C98.1302 63.2837 98.0875 63.266 98.0549 63.2353C98.0228 63.2026 98.0049 63.1586 98.0049 63.1128C98.0049 63.067 98.0228 63.023 98.0549 62.9903C98.2401 62.7807 98.4732 62.6189 98.7344 62.5188C98.9955 62.4186 99.2771 62.3832 99.5549 62.4153C99.6006 62.4227 99.6415 62.4479 99.6687 62.4854C99.6959 62.5229 99.7071 62.5696 99.6999 62.6153C99.6914 62.6604 99.6659 62.7006 99.6287 62.7275C99.5915 62.7545 99.5455 62.7662 99.4999 62.7603C99.282 62.7395 99.0622 62.7708 98.8588 62.8516C98.6553 62.9325 98.4741 63.0606 98.3299 63.2253C98.3117 63.2481 98.2877 63.2657 98.2605 63.2763C98.2333 63.2868 98.2037 63.2899 98.1749 63.2853Z" fill="#263238"/>
<path d="M91.2948 68.7603C91.7948 71.4503 92.3448 76.3753 90.4648 78.1653C90.4648 78.1653 91.1998 80.8903 96.1948 80.8903C101.695 80.8903 98.8198 78.1653 98.8198 78.1653C95.8198 77.4503 95.8998 75.2303 96.4198 73.1403L91.2948 68.7603Z" fill="#FFC3BD"/>
<path d="M89.7154 78.77C89.3154 78.27 88.8804 77.645 89.7804 77.455C90.7804 77.25 96.2154 77.035 98.0904 77.425C99.9654 77.815 99.4304 78.88 99.4304 78.88L89.7154 78.77Z" fill="white"/>
<path d="M73.1554 202.76C73.3037 202.813 73.4609 202.835 73.6179 202.827C73.775 202.818 73.9288 202.778 74.0704 202.71C74.1252 202.66 74.1628 202.594 74.178 202.521C74.1933 202.449 74.1854 202.373 74.1554 202.305C74.1393 202.248 74.1107 202.196 74.0718 202.152C74.0328 202.108 73.9846 202.073 73.9304 202.05C73.4304 201.81 72.2954 202.275 72.2454 202.295C72.2299 202.302 72.2166 202.313 72.2069 202.328C72.1973 202.342 72.1916 202.358 72.1904 202.375C72.1911 202.392 72.196 202.408 72.2048 202.422C72.2136 202.436 72.2258 202.447 72.2404 202.455C72.5339 202.589 72.8406 202.691 73.1554 202.76ZM73.7504 202.17L73.8554 202.205C73.8869 202.219 73.9149 202.239 73.9374 202.265C73.9599 202.291 73.9763 202.322 73.9854 202.355C74.0354 202.51 73.9854 202.56 73.9554 202.575C73.7604 202.745 73.0254 202.575 72.5104 202.38C72.9035 202.221 73.3267 202.149 73.7504 202.17Z" fill="#027471"/>
<path d="M72.26 202.46H72.3C72.72 202.34 73.605 201.705 73.615 201.29C73.6165 201.225 73.5954 201.162 73.5552 201.111C73.5151 201.06 73.4584 201.024 73.395 201.01C73.3323 200.988 73.2656 200.979 73.1993 200.984C73.1329 200.989 73.0684 201.008 73.01 201.04C72.51 201.29 72.21 202.305 72.195 202.35C72.1875 202.363 72.1836 202.378 72.1836 202.393C72.1836 202.408 72.1875 202.422 72.195 202.435C72.213 202.451 72.236 202.46 72.26 202.46ZM73.3 201.16H73.335C73.445 201.195 73.445 201.25 73.445 201.27C73.445 201.515 72.85 202.01 72.445 202.215C72.5603 201.811 72.7936 201.451 73.115 201.18C73.1732 201.155 73.2377 201.148 73.3 201.16Z" fill="#027471"/>
<path d="M100.235 204.555C100.71 204.555 101.165 204.49 101.315 204.28C101.354 204.225 101.375 204.158 101.375 204.09C101.375 204.022 101.354 203.956 101.315 203.9C101.284 203.849 101.244 203.804 101.196 203.769C101.148 203.734 101.093 203.709 101.035 203.695C100.425 203.53 99.1398 204.26 99.0898 204.295C99.0732 204.303 99.0596 204.316 99.0514 204.332C99.0432 204.349 99.0409 204.367 99.0448 204.385C99.0484 204.402 99.0569 204.418 99.0693 204.431C99.0818 204.443 99.0976 204.452 99.1148 204.455C99.4847 204.52 99.8593 204.553 100.235 204.555ZM100.82 203.845C100.875 203.837 100.93 203.837 100.985 203.845C101.02 203.851 101.054 203.865 101.083 203.886C101.113 203.907 101.137 203.934 101.155 203.965C101.22 204.075 101.195 204.13 101.155 204.16C100.985 204.395 100.055 204.4 99.3698 204.305C99.8187 204.059 100.311 203.903 100.82 203.845Z" fill="#027471"/>
<path d="M99.1251 204.455H99.1601C99.6051 204.255 100.485 203.455 100.415 203.045C100.415 202.945 100.33 202.825 100.095 202.8C100.006 202.79 99.9157 202.798 99.8298 202.824C99.7438 202.85 99.664 202.893 99.5951 202.95C99.1301 203.335 99.0301 204.325 99.0251 204.365C99.0232 204.38 99.0254 204.396 99.0315 204.41C99.0377 204.424 99.0476 204.436 99.0601 204.445C99.0799 204.456 99.1029 204.46 99.1251 204.455ZM100.025 202.955H100.075C100.23 202.955 100.24 203.03 100.245 203.05C100.285 203.3 99.6901 203.925 99.2451 204.195C99.2931 203.776 99.4675 203.382 99.7451 203.065C99.8261 203.004 99.9238 202.969 100.025 202.965V202.955Z" fill="#027471"/>
<path d="M72.1001 201.9L68.0651 201.03C67.9943 201.014 67.9198 201.023 67.8549 201.055C67.79 201.088 67.7388 201.143 67.7101 201.21L66.3101 204.245C66.276 204.319 66.2592 204.399 66.2609 204.481C66.2625 204.562 66.2827 204.642 66.3198 204.714C66.3569 204.786 66.41 204.849 66.475 204.898C66.5401 204.946 66.6153 204.98 66.6951 204.995C68.1101 205.28 68.8101 205.345 70.5851 205.73C71.6751 205.965 74.1401 206.565 75.6451 206.89C77.1501 207.215 77.6701 205.77 77.0851 205.5C74.4501 204.295 73.3501 203.235 72.6351 202.25C72.5053 202.072 72.3151 201.948 72.1001 201.9Z" fill="#263238"/>
<path d="M98.7351 203.945H94.7351C94.6622 203.946 94.5915 203.97 94.5343 204.016C94.4772 204.061 94.437 204.124 94.4201 204.195L93.6951 207.46C93.6778 207.539 93.6785 207.621 93.6972 207.699C93.7158 207.778 93.752 207.851 93.803 207.913C93.854 207.976 93.9184 208.026 93.9915 208.06C94.0646 208.094 94.1445 208.111 94.2251 208.11C95.6701 208.11 97.7651 208.005 99.5801 208.005C101.71 208.005 103.545 208.12 106.04 208.12C107.54 208.12 107.965 206.595 107.335 206.455C104.46 205.83 102.115 205.76 99.6301 204.23C99.3644 204.053 99.0543 203.955 98.7351 203.945Z" fill="#263238"/>
<path d="M100.055 79.0702C102.905 78.7752 105.855 78.4002 108.71 77.9502C111.517 77.5528 114.289 76.9342 117 76.1002C117.315 75.9952 117.615 75.8802 117.915 75.7602C118.163 75.6606 118.403 75.5437 118.635 75.4102C119.185 75.1002 119.79 74.7252 120.38 74.3302C121.57 73.5352 122.78 72.6952 123.975 71.8302L131.23 66.6152L133.07 68.6702C131.03 70.9252 128.905 73.0652 126.67 75.1302C125.55 76.1602 124.41 77.1802 123.17 78.1602C122.555 78.6602 121.94 79.1602 121.215 79.6152C120.817 79.8867 120.401 80.1307 119.97 80.3452C119.58 80.5302 119.19 80.7052 118.805 80.8452C117.314 81.4484 115.784 81.9496 114.225 82.3452C112.725 82.7552 111.19 83.0802 109.675 83.3702C106.641 83.9516 103.578 84.3689 100.5 84.6202L100.055 79.0702Z" fill="#FFC3BD"/>
<path d="M83.89 79.0003C80.445 79.7903 74.665 96.8853 74.665 96.8853L80.29 98.7553C80.29 98.7553 86.03 90.2553 87.98 86.1503C90 81.8503 87.41 78.1903 83.89 79.0003Z" fill="#263238"/>
<path d="M81.2701 97.9101C81.2701 97.9101 75.7701 96.8601 74.5051 96.0801C74.0651 96.7151 73.5051 99.0301 73.8951 99.7101C74.2851 100.39 79.3951 101.38 80.0801 100.975C80.7651 100.57 81.2701 97.9101 81.2701 97.9101Z" fill="#263238"/>
<path opacity="0.2" d="M81.2701 97.9101C81.2701 97.9101 75.7701 96.8601 74.5051 96.0801C74.0651 96.7151 73.5051 99.0301 73.8951 99.7101C74.2851 100.39 79.3951 101.38 80.0801 100.975C80.7651 100.57 81.2701 97.9101 81.2701 97.9101Z" fill="#FAFAFA"/>
<path d="M104.471 79.185C104.471 79.185 108.376 83.6 104.686 110.935H85.0406C84.9056 107.935 86.8006 93.205 83.8906 78.995C86.0621 78.5769 88.2584 78.2996 90.4656 78.165C93.2483 78.0049 96.0379 78.0049 98.8206 78.165C100.728 78.3578 102.617 78.6988 104.471 79.185Z" fill="#263238"/>
<path d="M97.5001 85.03C101.025 88.665 118.695 81.415 118.695 81.415L115.86 75.96C115.86 75.96 104.81 78.255 100.27 78.165C94.6701 78.05 94.8351 82.265 97.5001 85.03Z" fill="#263238"/>
<path d="M115 75.8552C115 75.8552 117.815 80.7102 118.04 82.1652C118.815 82.0852 120.915 80.9802 121.19 80.2502C121.465 79.5202 118.855 75.0102 118.095 74.7502C117.335 74.4902 115 75.8552 115 75.8552Z" fill="#263238"/>
<path opacity="0.2" d="M115 75.8552C115 75.8552 117.815 80.7102 118.04 82.1652C118.815 82.0852 120.915 80.9802 121.19 80.2502C121.465 79.5202 118.855 75.0102 118.095 74.7502C117.335 74.4902 115 75.8552 115 75.8552Z" fill="#FAFAFA"/>
<path d="M131.115 66.6652L133.615 63.7202L136.305 66.7202C136.305 66.7202 134.645 69.5052 132.01 69.0652L131.115 66.6652Z" fill="#FFC3BD"/>
<path d="M137.13 62.3301L139.555 63.7201L136.33 66.7051L133.635 63.7201L137.13 62.3301Z" fill="#FFC3BD"/>
<path d="M89.7556 66.0303C90.7006 69.5553 91.0756 71.6603 93.2556 73.1253C96.5256 75.3303 100.596 72.8003 100.721 69.0703C100.836 65.7103 99.2756 60.5153 95.4956 59.8053C94.6624 59.6419 93.8011 59.6947 92.9941 59.9587C92.1871 60.2227 91.4612 60.6891 90.8856 61.3133C90.31 61.9375 89.9039 62.6988 89.7061 63.5246C89.5083 64.3503 89.5253 65.213 89.7556 66.0303Z" fill="#FFC3BD"/>
<path d="M97.4699 52.6401C99.9699 57.9001 86.9949 54.9851 86.9049 59.7601C86.9049 59.9601 86.9049 60.1401 86.9049 60.3151C86.5349 59.9701 85.7899 59.5901 84.5049 60.1101C85.2584 60.3947 85.9409 60.84 86.5049 61.4151C86.0049 61.8401 85.2449 62.0651 85.5699 64.1001C85.7249 65.1001 86.7199 66.6001 88.0149 67.9301C88.5799 68.8351 90.4149 70.8901 90.3799 71.3851C90.6605 71.3863 90.9382 71.3283 91.1949 71.2151C91.2758 71.4026 91.3117 71.6063 91.2999 71.8101C91.9799 71.9401 92.5149 71.8451 92.5749 71.3751C93.1299 71.4251 93.5299 71.2751 93.5499 70.8301C94.0799 70.9051 94.4449 70.7351 94.4199 70.1651C95.6799 69.4751 96.1099 68.0201 96.3399 66.3951C96.6069 64.3389 97.6366 62.458 99.2249 61.1251C101.77 59.0901 102.77 55.8801 97.4699 52.6401Z" fill="#263238"/>
<path d="M94.8151 65.8453C95.0588 66.7213 95.5864 67.4916 96.3151 68.0353C97.2751 68.7453 97.9851 68.0353 97.9201 66.9653C97.8601 65.9653 97.2851 64.4653 96.2301 64.1603C95.1751 63.8553 94.5401 64.7853 94.8151 65.8453Z" fill="#FFC3BD"/>
<path d="M97.7154 110.935C97.7154 110.935 93.5454 139 91.2604 149.5C88.7604 161 75.3504 197.94 75.3504 197.94L68.7754 196.515C68.7754 196.515 78.8104 161.95 80.2404 150.545C81.7904 138.17 85.0404 110.915 85.0404 110.915L97.7154 110.935Z" fill="#027471"/>
<path opacity="0.5" d="M97.7154 110.935C97.7154 110.935 93.5454 139 91.2604 149.5C88.7604 161 75.3504 197.94 75.3504 197.94L68.7754 196.515C68.7754 196.515 78.8104 161.95 80.2404 150.545C81.7904 138.17 85.0404 110.915 85.0404 110.915L97.7154 110.935Z" fill="black"/>
<path opacity="0.3" d="M95.0802 120.935C90.2602 121.88 90.7702 139.855 91.3502 149.1C92.7402 142.565 94.7752 129.99 96.1652 121.065C95.829 120.899 95.4462 120.853 95.0802 120.935Z" fill="black"/>
<path d="M104.685 110.935C104.685 110.935 105.185 138.4 104.79 149.6C104.375 161.25 100.29 199.4 100.29 199.4H94.0854C94.0854 199.4 93.8554 161.93 93.5854 150.49C93.2804 137.99 91.7754 110.935 91.7754 110.935H104.685Z" fill="#027471"/>
<path opacity="0.5" d="M104.685 110.935C104.685 110.935 105.185 138.4 104.79 149.6C104.375 161.25 100.29 199.4 100.29 199.4H94.0854C94.0854 199.4 93.8554 161.93 93.5854 150.49C93.2804 137.99 91.7754 110.935 91.7754 110.935H104.685Z" fill="black"/>
<path opacity="0.2" d="M99.0002 194.93C98.9918 194.93 98.9837 194.927 98.9763 194.924C98.9688 194.92 98.9623 194.914 98.9572 194.908C98.952 194.901 98.9482 194.893 98.9462 194.885C98.9441 194.877 98.9438 194.869 98.9452 194.86C100.04 184.31 102.625 158.77 102.945 149.595C103.28 140.225 102.98 119.255 102.875 113.05C102.875 113.033 102.882 113.017 102.894 113.004C102.906 112.992 102.923 112.985 102.94 112.985C102.956 112.985 102.971 112.992 102.983 113.003C102.994 113.014 103 113.029 103 113.045C103.105 119.25 103.405 140.225 103.07 149.6C102.745 158.78 100.16 184.32 99.0702 194.875C99.0696 194.884 99.0673 194.892 99.0634 194.899C99.0594 194.907 99.054 194.913 99.0474 194.918C99.0408 194.924 99.0332 194.927 99.0251 194.929C99.0169 194.931 99.0085 194.932 99.0002 194.93Z" fill="#FAFAFA"/>
<path d="M76.9247 195.765C76.9547 195.765 75.6997 198.14 75.6997 198.14L68.3047 196.54L68.9247 194.315L76.9247 195.765Z" fill="#263238"/>
<path d="M101.5 196.92C101.53 196.92 101.15 199.505 101.15 199.505H93.5849L93.3799 197.2L101.5 196.92Z" fill="#263238"/>
</svg>
